<?xml version="1.0" encoding="UTF-8"?>
<svg version="1.1" xmlns="http://www.w3.org/2000/svg" width="750" height="714">
<path d="M0 0 C0.93263672 0.00060425 1.86527344 0.0012085 2.82617188 0.00183105 C16.48381428 0.02585144 29.95303626 0.3115705 43.5 2.1875 C44.48145996 2.31640625 45.46291992 2.4453125 46.47412109 2.578125 C83.18289683 7.47489545 117.64488267 17.27176342 151.5 32.1875 C153.0173877 32.85023926 153.0173877 32.85023926 154.56542969 33.52636719 C179.52831039 44.54707911 202.29719157 59.06849126 223.5 76.1875 C224.59233546 77.05873476 225.68476828 77.92984748 226.77734375 78.80078125 C229.37733986 80.90092158 231.942819 83.03553384 234.5 85.1875 C235.57519733 86.07721401 236.65073896 86.96651204 237.7265625 87.85546875 C246.34177532 95.01123324 254.32734064 102.51947349 261.62890625 111.03515625 C263.83079829 113.56802162 266.10195826 116.03082522 268.375 118.5 C289.77523624 142.00464676 305.8097382 168.62313251 319.5 197.1875 C319.85416992 197.91565918 320.20833984 198.64381836 320.57324219 199.39404297 C340.12530523 239.85283539 348.74716209 285.06041068 348.6875 329.8125 C348.68659363 331.07323334 348.68659363 331.07323334 348.68566895 332.35943604 C348.66151625 344.74652959 348.35430388 356.92037283 346.5 369.1875 C346.37109375 370.08936035 346.2421875 370.9912207 346.109375 371.92041016 C337.99583893 427.91695595 316.855383 483.28451599 280.5 527.1875 C279.98840332 527.80560547 279.47680664 528.42371094 278.94970703 529.06054688 C277.62084462 530.65201004 276.28192466 532.23417392 274.9375 533.8125 C274.50759766 534.32039062 274.07769531 534.82828125 273.63476562 535.3515625 C262.36787406 548.62625064 250.84501397 561.95193083 237.5 573.1875 C236.73558594 573.83976563 235.97117187 574.49203125 235.18359375 575.1640625 C221.35474048 586.72056899 206.99052235 597.94816838 191.5 607.1875 C190.79101562 607.6191748 190.08203125 608.05084961 189.3515625 608.49560547 C173.67087069 618.00235486 157.2295388 625.74550882 140.5 633.1875 C139.57864258 633.60016113 138.65728516 634.01282227 137.70800781 634.43798828 C95.59914856 653.0563682 47.72586017 660.42976394 2 660.375 C1.06736328 660.37439575 0.13472656 660.3737915 -0.82617188 660.37316895 C-14.48381428 660.34914856 -27.95303626 660.0634295 -41.5 658.1875 C-42.48145996 658.05859375 -43.46291992 657.9296875 -44.47412109 657.796875 C-81.18289683 652.90010455 -115.64488267 643.10323658 -149.5 628.1875 C-150.5115918 627.74567383 -151.52318359 627.30384766 -152.56542969 626.84863281 C-177.52831039 615.82792089 -200.29719157 601.30650874 -221.5 584.1875 C-222.59233546 583.31626524 -223.68476828 582.44515252 -224.77734375 581.57421875 C-227.37733986 579.47407842 -229.942819 577.33946616 -232.5 575.1875 C-233.57519733 574.29778599 -234.65073896 573.40848796 -235.7265625 572.51953125 C-244.34177532 565.36376676 -252.32734064 557.85552651 -259.62890625 549.33984375 C-261.83079829 546.80697838 -264.10195826 544.34417478 -266.375 541.875 C-287.77523624 518.37035324 -303.8097382 491.75186749 -317.5 463.1875 C-317.85416992 462.45934082 -318.20833984 461.73118164 -318.57324219 460.98095703 C-338.12530523 420.52216461 -346.74716209 375.31458932 -346.6875 330.5625 C-346.68689575 329.72201111 -346.6862915 328.88152222 -346.68566895 328.01556396 C-346.66151625 315.62847041 -346.35430388 303.45462717 -344.5 291.1875 C-344.37109375 290.28563965 -344.2421875 289.3837793 -344.109375 288.45458984 C-335.99583893 232.45804405 -314.855383 177.09048401 -278.5 133.1875 C-277.98840332 132.56939453 -277.47680664 131.95128906 -276.94970703 131.31445312 C-275.62084462 129.72298996 -274.28192466 128.14082608 -272.9375 126.5625 C-272.50759766 126.05460937 -272.07769531 125.54671875 -271.63476562 125.0234375 C-260.36787406 111.74874936 -248.84501397 98.42306917 -235.5 87.1875 C-234.73558594 86.53523438 -233.97117187 85.88296875 -233.18359375 85.2109375 C-219.35474048 73.65443101 -204.99052235 62.42683162 -189.5 53.1875 C-188.79101562 52.7558252 -188.08203125 52.32415039 -187.3515625 51.87939453 C-171.67087069 42.37264514 -155.2295388 34.62949118 -138.5 27.1875 C-137.57864258 26.77483887 -136.65728516 26.36217773 -135.70800781 25.93701172 C-93.59914856 7.3186318 -45.72586017 -0.05476394 0 0 Z M-180.62939453 63.98974609 C-182.07597098 64.91599303 -183.53196161 65.82754674 -184.99169922 66.73291016 C-191.54617564 70.82527556 -197.75563222 75.22260554 -203.875 79.9375 C-205.24072144 80.98357422 -205.24072144 80.98357422 -206.6340332 82.05078125 C-212.80565188 86.8063487 -218.81653105 91.70279337 -224.70703125 96.80078125 C-227.37201623 99.07813205 -230.10173546 101.23183443 -232.875 103.375 C-236.47534788 106.23917451 -239.46418247 109.20214383 -242.3984375 112.734375 C-245.27878116 116.09656053 -248.33397429 119.28348427 -251.375 122.5 C-257.04141857 128.52848529 -262.35120432 134.70868273 -267.5 141.1875 C-268.12777344 141.92355469 -268.75554687 142.65960938 -269.40234375 143.41796875 C-279.7856776 155.75481327 -287.79141532 170.2025421 -295.47949219 184.32714844 C-296.44957413 186.09557533 -297.44674767 187.84906117 -298.4453125 189.6015625 C-336.14337532 257.21387759 -342.3142863 340.34313707 -321.38623047 414.18945312 C-309.96346569 452.83175381 -291.42046429 490.9286292 -265.0625 521.6875 C-264.58296875 522.25009521 -264.1034375 522.81269043 -263.609375 523.39233398 C-262.2425688 524.99331166 -260.8720897 526.59105009 -259.5 528.1875 C-258.56994141 529.27224609 -258.56994141 529.27224609 -257.62109375 530.37890625 C-253.66430366 534.94590011 -249.57917299 539.39377937 -245.4765625 543.82958984 C-243.06157259 546.44832374 -240.72886832 549.09699021 -238.5 551.875 C-234.89729726 556.11886171 -230.50739898 559.42082394 -226.15722656 562.86279297 C-224.38838994 564.2767157 -222.64215072 565.7153785 -220.8984375 567.16015625 C-151.08017068 624.90271264 -60.23290366 653.87369702 30.24121094 645.85595703 C83.39519834 640.72362245 137.40827514 625.46481229 182.62939453 596.38525391 C184.07597098 595.45900697 185.53196161 594.54745326 186.99169922 593.64208984 C193.54617564 589.54972444 199.75563222 585.15239446 205.875 580.4375 C207.24072144 579.39142578 207.24072144 579.39142578 208.6340332 578.32421875 C214.80565188 573.5686513 220.81653105 568.67220663 226.70703125 563.57421875 C229.37201623 561.29686795 232.10173546 559.14316557 234.875 557 C238.47534788 554.13582549 241.46418247 551.17285617 244.3984375 547.640625 C247.27878116 544.27843947 250.33397429 541.09151573 253.375 537.875 C259.04141857 531.84651471 264.35120432 525.66631727 269.5 519.1875 C270.12777344 518.45144531 270.75554688 517.71539063 271.40234375 516.95703125 C281.7856776 504.62018673 289.79141532 490.1724579 297.47949219 476.04785156 C298.44957413 474.27942467 299.44674767 472.52593883 300.4453125 470.7734375 C338.14337532 403.16112241 344.3142863 320.03186293 323.38623047 246.18554688 C311.96346569 207.54324619 293.42046429 169.4463708 267.0625 138.6875 C266.58296875 138.12490479 266.1034375 137.56230957 265.609375 136.98266602 C264.2425688 135.38168834 262.8720897 133.78394991 261.5 132.1875 C260.87996094 131.46433594 260.25992188 130.74117188 259.62109375 129.99609375 C255.66430366 125.42909989 251.57917299 120.98122063 247.4765625 116.54541016 C245.06157259 113.92667626 242.72886832 111.27800979 240.5 108.5 C236.89729726 104.25613829 232.50739898 100.95417606 228.15722656 97.51220703 C226.38838994 96.0982843 224.64215072 94.6596215 222.8984375 93.21484375 C144.66920477 28.51607525 42.48237457 1.9529889 -180.62939453 63.98974609 Z " fill="#5AD96D" transform="translate(377.5,31.8125)"/>
<path d="M0 0 C0.66 0.33 1.32 0.66 2 1 C2 1.99 2 2.98 2 4 C0.55737305 5.40356445 0.55737305 5.40356445 -1.48828125 6.86328125 C-2.24753906 7.41306641 -3.00679688 7.96285156 -3.7890625 8.52929688 C-4.62179687 9.11775391 -5.45453125 9.70621094 -6.3125 10.3125 C-8.06919575 11.57917009 -9.82570102 12.84610439 -11.58203125 14.11328125 C-12.93675537 15.08322021 -12.93675537 15.08322021 -14.31884766 16.07275391 C-18.40683289 19.01124921 -22.45241435 22.00624368 -26.5 25 C-28.08181844 26.16565342 -29.66385056 27.33101694 -31.24609375 28.49609375 C-34.42750611 30.84012017 -37.60700616 33.18670882 -40.78515625 35.53515625 C-48.55600216 41.27423734 -56.34506092 46.98405103 -64.1875 52.625 C-71.85279128 58.1416806 -79.4245184 63.77360572 -86.96191406 69.46337891 C-90.63559069 72.23315858 -94.31845813 74.99068888 -98 77.75 C-99.354204 78.76557522 -100.7083743 79.78119539 -102.0625 80.796875 C-103.031875 81.52390625 -104.00125 82.2509375 -105 83 C-101.53349557 90.18701156 -97.71463221 97.08809988 -93.625 103.9375 C-93.05499268 104.89736816 -92.48498535 105.85723633 -91.89770508 106.84619141 C-88.04765092 113.30700014 -84.13417677 119.71605131 -80 126 C-75.50063253 122.10656454 -71.06743844 118.1525296 -66.6875 114.125 C-62.22611655 110.05582609 -57.64055282 106.20022184 -52.94140625 102.41015625 C-50.22299357 100.1827185 -47.55878217 97.90715472 -44.90405273 95.60498047 C-38.35134636 89.92363028 -31.6598507 84.50887781 -24.72460938 79.29931641 C-22.90848091 77.93104974 -21.1024066 76.55018271 -19.296875 75.16796875 C0.19613497 60.30866395 20.55827162 46.98636056 42.1875 35.4375 C42.94095703 35.03184814 43.69441406 34.62619629 44.47070312 34.20825195 C51.61017993 30.47271904 58.78453836 27.17845384 67 28 C67.99 28.66 68.98 29.32 70 30 C69.67 33.3 69.34 36.6 69 40 C67.515 40.495 67.515 40.495 66 41 C65.34 40.67 64.68 40.34 64 40 C64 37.69 64 35.38 64 33 C15.50856337 45.73867929 -27.23311811 83.77378134 -63.71484375 116.93359375 C-66.51130426 119.46235889 -69.35488183 121.933462 -72.2109375 124.39453125 C-74.21555483 126.19343458 -76.11039699 128.08126214 -78 130 C-69.75647578 144.70139512 -61.12719282 159.15091258 -52.33822632 173.52998352 C-49.73242595 177.79445333 -47.13999133 182.06682718 -44.5546875 186.34375 C-30.64244324 209.40225278 -30.64244324 209.40225278 -16 232 C-12.13719042 227.41486208 -8.92585733 222.45933978 -5.65234375 217.44921875 C-5.04040665 216.51761429 -4.42846954 215.58600983 -3.79798889 214.62617493 C-1.84213437 211.64815622 0.11047236 208.66802829 2.0625 205.6875 C10.10194424 193.41911559 18.17820926 181.1910571 26.52835083 169.13180542 C31.31672275 162.19545305 36.05008853 155.22129732 40.78051758 148.24536133 C42.0543682 146.36973004 43.3310751 144.4960355 44.6105957 142.62426758 C54.59107629 128.01940009 63.77021344 113.86618189 69.46289062 97.01757812 C71.13275794 92.38359426 72.58992439 89.62165785 77 87 C79.75755067 86.2897218 82.21623106 86.42637489 85 87 C87.8100346 88.79363911 89.50940468 90.01880935 91 93 C92.47032448 106.23292032 82.6238765 119.97020891 76.85043335 131.39205933 C74.35223737 136.33693409 71.87001965 141.28982026 69.38671875 146.2421875 C68.90525894 147.20178879 68.42379913 148.16139008 67.92774963 149.15007019 C62.80567269 159.36675762 57.8265818 169.64016032 53 180 C52.35093945 181.38566879 51.7016724 182.77124087 51.05224609 184.15673828 C42.43668407 202.55560529 34.01359741 220.91742016 27 240 C28.13050781 239.84144531 29.26101563 239.68289063 30.42578125 239.51953125 C37.98731869 238.69145391 45.58926158 238.71070392 53.1875 238.6875 C54.41996964 238.68357239 54.41996964 238.68357239 55.67733765 238.67956543 C68.63537544 238.67519978 81.42785661 239.38925148 94.3125 240.75 C95.08226166 240.82850189 95.85202332 240.90700378 96.64511108 240.98788452 C104.9331247 241.85275455 113.05648723 243.08194699 121.1796875 244.95703125 C121.86529251 245.11431702 122.55089752 245.27160278 123.25727844 245.43365479 C132.94990977 247.80030121 140.64919663 251.35564214 146.22265625 259.8671875 C148.63709916 266.4917394 148.02304916 275.85974065 145.1875 282.25 C137.29036619 295.46251234 123.21807997 304.21361076 111 313 C110.15663086 313.60811523 109.31326172 314.21623047 108.44433594 314.84277344 C97.23990293 322.88820903 85.78451319 330.44738801 74.06347656 337.71630859 C71.13268141 339.53956001 68.2222118 341.39329132 65.3125 343.25 C64.46300781 343.79140625 63.61351562 344.3328125 62.73828125 344.890625 C62.16464844 345.25671875 61.59101563 345.6228125 61 346 C63.78359104 351.15821847 66.90151697 355.60966944 70.625 360.125 C71.70022995 361.44839781 72.77443255 362.77263093 73.84765625 364.09765625 C74.3802002 364.7539502 74.91274414 365.41024414 75.46142578 366.08642578 C77.70612231 368.87822702 79.88893144 371.71517786 82.0625 374.5625 C85.55418801 379.1274182 89.07410077 383.6684517 92.625 388.1875 C93.08245605 388.77055908 93.53991211 389.35361816 94.01123047 389.9543457 C97.49631414 394.38609573 101.04576452 398.76280916 104.63671875 403.109375 C106 405 106 405 106 407 C115.83211478 398.78729236 124.82816417 389.80087972 132.79296875 379.76953125 C135.1154252 376.8551567 137.52134626 374.02450789 139.9375 371.1875 C142.69176927 367.9176109 145.28754752 364.64774708 147.71484375 361.12890625 C148.16029541 360.48348877 148.60574707 359.83807129 149.06469727 359.1730957 C149.92303875 357.91333124 150.76913047 356.64511212 151.60131836 355.36791992 C152.7734375 353.640625 152.7734375 353.640625 155 351 C156.32 351 157.64 351 159 351 C157.62004274 355.00402107 155.78533964 357.77001301 153.0625 361 C152.25941406 361.9590625 151.45632813 362.918125 150.62890625 363.90625 C149.75318085 364.93798976 148.87686359 365.96922741 148 367 C147.09219932 368.07270633 146.18465068 369.14562602 145.27734375 370.21875 C143.87872252 371.87272219 142.47851527 373.52518557 141.07275391 375.1730957 C138.27962828 378.45330459 135.59301708 381.79405058 132.9375 385.1875 C126.00192892 393.75497016 117.86596725 401.2994178 110 409 C116.95130005 423.5056278 130.49733546 436.41259147 141.3671875 448.15234375 C149.84362922 457.32048323 158.0517436 466.71767101 166.1875 476.1875 C166.95477417 477.07937012 166.95477417 477.07937012 167.73754883 477.98925781 C176 487.62585663 176 487.62585663 176 490 C176.5775 490.0825 177.155 490.165 177.75 490.25 C180.83240595 491.27746865 182.05372609 492.38259716 184 495 C185.47231297 499.39818332 185.39954231 502.17018136 183.375 506.375 C180.32584946 509.74511376 178.49475814 510.83750617 173.9609375 511.1328125 C167.03101203 510.91848491 163.62774315 507.86333735 159 503 C158.16726563 502.15179687 157.33453125 501.30359375 156.4765625 500.4296875 C150.71862288 494.37477678 145.62745696 487.99846965 140.68579102 481.2668457 C137.01342534 476.28380012 133.16034876 471.49587161 129.1875 466.75 C119.04777734 454.58289597 109.59282827 441.88469392 100.5625 428.875 C100.09561768 428.205896 99.62873535 427.53679199 99.14770508 426.84741211 C96 422.24487009 96 422.24487009 96 420 C95.18660156 420.51949219 94.37320312 421.03898437 93.53515625 421.57421875 C77.56767995 431.42709507 60.18932949 436.01336454 41.421875 432.84375 C29.26783432 429.84686326 20.43217239 422.69725429 13.75 412.25 C7.57787242 401.1504004 4.63781272 389.30488056 2 377 C-3.68619381 378.6175087 -9.22595192 380.40345423 -14.71484375 382.59936523 C-36.00377016 391.10674111 -57.99849448 397.45818998 -80.25 402.875 C-81.0389566 403.0691449 -81.82791321 403.26328979 -82.64077759 403.46331787 C-89.87235314 405.23620339 -97.03321059 406.9809645 -104.43359375 407.88671875 C-113.68083526 408.77151764 -113.68083526 408.77151764 -120.91796875 414.01953125 C-123.22052033 417.36101746 -124.98450643 420.93020293 -126.75244141 424.57519531 C-129.02920009 429.00039439 -131.83977367 433.09032121 -134.5625 437.25 C-147.92603006 458.15032514 -160.51446733 479.35778579 -172.19824219 501.24462891 C-173.26574897 503.23257394 -174.34910597 505.2109366 -175.4375 507.1875 C-176.01371094 508.25355469 -176.58992187 509.31960938 -177.18359375 510.41796875 C-179.19741995 513.28063352 -180.85215954 514.51836986 -184 516 C-188.62373012 516.57796627 -191.31959072 515.86254055 -195 513 C-197.18421959 510.19171767 -197.61571149 507.01356657 -197.48046875 503.484375 C-193.64448431 483.64952862 -175.11102116 463.41840037 -163.67285156 447.35205078 C-162.04338201 445.06099566 -160.42240593 442.76420763 -158.8046875 440.46484375 C-152.57618993 431.61469192 -146.2941879 422.80350383 -140 414 C-141.22928223 414.01047363 -142.45856445 414.02094727 -143.72509766 414.03173828 C-148.35088102 414.06834614 -152.97665199 414.09104662 -157.60253906 414.10986328 C-159.59246993 414.11982901 -161.58238651 414.13340648 -163.57226562 414.15087891 C-194.62078137 414.41638432 -194.62078137 414.41638432 -200.75 409.5625 C-204.53649909 405.25009826 -205.49459099 402.81171553 -205.39453125 397.2265625 C-204.76592115 393.67896097 -202.77876696 392.11715578 -200 390 C-195.91539511 387.95769755 -190.28478933 389.70159732 -185.97265625 390.703125 C-172.99881468 393.62761525 -159.85101304 393.78026174 -146.60691833 393.90145874 C-142.90871579 393.94158473 -139.25779456 394.10662979 -135.57421875 394.4296875 C-130.7620699 394.73681277 -126.24394929 394.94032824 -122.38330078 391.60205078 C-118.82514796 387.61811713 -116.17667805 383.11187328 -113.50537109 378.50732422 C-110.95180176 374.25413624 -108.01486434 370.27846453 -105.125 366.25 C-94.09079115 350.5347031 -83.61761144 334.44325942 -73.10742188 318.37548828 C-65.36787117 306.54607469 -57.59197884 294.74068276 -49.8125 282.9375 C-49.18544159 281.98583954 -48.55838318 281.03417908 -47.912323 280.05368042 C-46.09427587 277.29464855 -44.27574274 274.53593771 -42.45703125 271.77734375 C-41.92427582 270.96885986 -41.39152039 270.16037598 -40.84262085 269.32739258 C-36.58381172 262.87018206 -32.29489507 256.4332417 -28 250 C-28.92071289 250.1952124 -29.84142578 250.3904248 -30.79003906 250.59155273 C-109.67501677 267.30491389 -109.67501677 267.30491389 -138.5 272 C-139.4600293 272.15694336 -140.42005859 272.31388672 -141.40917969 272.47558594 C-185.18396176 279.57048788 -185.18396176 279.57048788 -196.20703125 272.60546875 C-200.06182009 269.15379508 -201.6962521 265.81441416 -202.25 260.68359375 C-201.92372386 247.97921655 -191.83562002 237.90114898 -183.77633667 228.97666931 C-182.58240712 227.64809013 -181.39658679 226.31218285 -180.21861267 224.96943665 C-173.32276113 217.17056993 -165.98612321 209.84051407 -158.62109375 202.48828125 C-157.2405008 201.10701295 -155.86005617 199.72559638 -154.47975159 198.34403992 C-151.60278552 195.46560872 -148.72404222 192.5889704 -145.84399414 189.71362305 C-142.17030122 186.04563746 -138.50113171 182.37316495 -134.83328152 178.69933796 C-131.98936777 175.85179565 -129.14305807 173.00665783 -126.29603767 170.16222191 C-124.94264606 168.80949266 -123.58998379 167.45603328 -122.23809624 166.10180092 C-109.50096134 153.3474126 -109.50096134 153.3474126 -103.49024963 148.27006531 C-101.37106989 146.46399429 -99.43772932 144.49735176 -97.5 142.5 C-94.01965673 138.95319185 -90.40386905 135.71739477 -86.53125 132.60546875 C-84.68224332 130.66684185 -84.3116005 129.65127004 -84 127 C-84.87750991 124.71903181 -84.87750991 124.71903181 -86.359375 122.4296875 C-86.89328857 121.54104004 -87.42720215 120.65239258 -87.97729492 119.73681641 C-88.5622876 118.79241699 -89.14728027 117.84801758 -89.75 116.875 C-90.33821533 115.9061084 -90.92643066 114.9372168 -91.5324707 113.93896484 C-92.74852504 111.9386495 -93.96969187 109.94143377 -95.19580078 107.94726562 C-96.90202709 105.16004452 -98.57924709 102.35777756 -100.24609375 99.546875 C-101.22611842 97.90598469 -102.20656445 96.26534594 -103.1875 94.625 C-103.64415039 93.85269043 -104.10080078 93.08038086 -104.57128906 92.28466797 C-105.65899561 90.48850464 -106.82188426 88.73820354 -108 87 C-111.59192713 87 -114.29592267 90.06523449 -117.0625 92.1875 C-117.77132324 92.72560303 -118.48014648 93.26370605 -119.21044922 93.81811523 C-121.4771141 95.54089007 -123.73854422 97.27039526 -126 99 C-127.44892698 100.10194625 -128.89814082 101.20351542 -130.34765625 102.3046875 C-144.77557922 113.28181166 -158.96318668 124.52767702 -173 136 C-174.01320312 136.82757813 -175.02640625 137.65515625 -176.0703125 138.5078125 C-177.85893307 139.97030283 -179.64673301 141.43379755 -181.43359375 142.8984375 C-183.17345205 144.32316165 -184.91572016 145.74494709 -186.66015625 147.1640625 C-192.21490631 151.68778701 -197.70752416 156.27670125 -203.16577148 160.91577148 C-206.5591538 163.79520268 -209.98249917 166.63189727 -213.4375 169.4375 C-218.29923279 173.39340776 -223.05588552 177.46080099 -227.80175781 181.55395508 C-231.38465096 184.63714961 -235.00934683 187.65519302 -238.6875 190.625 C-243.43478185 194.47867585 -247.95806043 198.53683859 -252.4609375 202.671875 C-256.94826092 206.7864054 -261.54697525 210.76608895 -266.18359375 214.7109375 C-272.45893461 220.05572448 -278.64138228 225.46270474 -284.6796875 231.07421875 C-287.77551603 233.93190662 -290.9564488 236.6239942 -294.25 239.25 C-297.62288136 241.94830509 -300.80898868 244.73126087 -303.9296875 247.71875 C-304.96947754 248.71406738 -304.96947754 248.71406738 -306.03027344 249.72949219 C-307.38818871 251.03929485 -308.73834206 252.35721171 -310.07910156 253.68457031 C-315.68130327 259.09388609 -321.71973056 264.05176858 -329.75 264.5625 C-333.88091265 264.31695624 -336.16118535 263.10495353 -339 260 C-340.20190901 256.39427296 -340.32670315 253.7897565 -340 250 C-337.56131985 245.65278756 -333.9606726 243.59167923 -329.875 240.984375 C-326.17065181 238.42756945 -322.7247104 235.60777873 -319.25 232.75 C-312.85341046 227.49560565 -306.3727524 222.39581303 -299.79150391 217.37353516 C-296.28403003 214.68437626 -292.79969486 211.96536836 -289.3125 209.25 C-288.17107544 208.36175537 -288.17107544 208.36175537 -287.0065918 207.45556641 C-283.15150886 204.45514617 -279.29793199 201.45280124 -275.4453125 198.44921875 C-248.75623834 177.65096327 -221.695135 157.37689845 -194.23388672 137.60888672 C-191.23766746 135.45095394 -188.24440905 133.28893678 -185.25146484 131.12646484 C-183.75343552 130.04428405 -182.25506433 128.96257633 -180.75634766 127.88134766 C-176.96288595 125.14414677 -173.17442061 122.40045058 -169.39453125 119.64453125 C-162.71008751 114.77807413 -156.02186547 109.93729827 -149.125 105.375 C-148.56200195 105.00213867 -147.99900391 104.62927734 -147.41894531 104.24511719 C-146.11551107 103.38280302 -144.81195151 102.52067826 -143.50830078 101.65869141 C-142.68056152 101.11132324 -141.85282227 100.56395508 -141 100 C-140.46864441 99.64903259 -139.93728882 99.29806519 -139.38983154 98.9364624 C-135.59058718 96.42534629 -131.79981236 93.90200214 -128.01629639 91.36724854 C-126.71631558 90.49911915 -125.41378331 89.63479809 -124.10870361 88.77435303 C-122.26515551 87.55826824 -120.43067973 86.32952798 -118.59765625 85.09765625 C-117.52008057 84.38101807 -116.44250488 83.66437988 -115.33227539 82.92602539 C-114.56262451 82.29043701 -113.79297363 81.65484863 -113 81 C-113 77.33896525 -114.00060684 75.98154558 -115.89453125 72.87109375 C-116.51497314 71.84483887 -117.13541504 70.81858398 -117.7746582 69.76123047 C-118.447146 68.66439941 -119.11963379 67.56756836 -119.8125 66.4375 C-120.49594482 65.31230957 -121.17938965 64.18711914 -121.88354492 63.02783203 C-123.26899947 60.74692377 -124.65881518 58.46885592 -126.05078125 56.19189453 C-127.74118729 53.42381229 -129.42085319 50.64977535 -131.09375 47.87109375 C-135.81988973 40.04428094 -140.64606483 32.33002548 -145.91723633 24.85498047 C-148.16243477 21.59756826 -149.56916911 18.95918732 -150 15 C-147.63332081 15.37132327 -146.34623866 15.60199741 -144.74584961 17.44165039 C-144.38499268 18.07063232 -144.02413574 18.69961426 -143.65234375 19.34765625 C-143.22131348 20.08258301 -142.7902832 20.81750977 -142.34619141 21.57470703 C-141.64888916 22.80616455 -141.64888916 22.80616455 -140.9375 24.0625 C-139.8818868 25.87391731 -138.82586734 27.6850979 -137.76953125 29.49609375 C-137.18123535 30.51429199 -136.59293945 31.53249023 -135.98681641 32.58154297 C-132.49947345 38.58176121 -128.93814967 44.53811056 -125.38821411 50.50143433 C-123.7510477 53.25364424 -122.11781131 56.00817501 -120.48466492 58.76277161 C-116.67576211 65.18684781 -112.85249787 71.6019324 -109 78 C-102.21812944 74.41111804 -95.87664951 70.35254847 -89.5625 66 C-88.60239014 65.34136963 -87.64228027 64.68273926 -86.65307617 64.00415039 C-77.66310465 57.81317521 -68.79910458 51.45858903 -60 45 C-59.23623047 44.43958008 -58.47246094 43.87916016 -57.68554688 43.30175781 C-52.92334136 39.8040816 -48.16932804 36.29542029 -43.41748047 32.78369141 C-40.95965715 30.9702338 -38.49798431 29.16212249 -36.03515625 27.35546875 C-26.9367323 20.67759436 -17.90491687 13.93425754 -9 7 C-8.07832031 6.28457031 -7.15664063 5.56914063 -6.20703125 4.83203125 C-4.13627064 3.22357998 -2.06713159 1.61311044 0 0 Z M-83.34765625 133.28515625 C-83.91355469 133.87167969 -84.47945313 134.45820313 -85.0625 135.0625 C-87.56004059 137.60065101 -90.10449265 140.00078641 -92.8125 142.3125 C-96.86032338 145.79660329 -100.58804549 149.54988456 -104.3125 153.375 C-106.34101653 155.35634173 -108.37179735 157.19360723 -110.52368164 159.03027344 C-115.66802853 163.51721701 -120.48045082 168.31835537 -125.30859375 173.140625 C-126.28444177 174.11324828 -127.26035976 175.08580136 -128.23634338 176.05828857 C-130.27106584 178.08706364 -132.30375257 180.1178533 -134.33520508 182.14990234 C-136.9094861 184.72428474 -139.49057227 187.29172337 -142.07350063 189.85742569 C-144.08899588 191.8616785 -146.09980422 193.87058599 -148.10942268 195.88072968 C-149.51141088 197.28099995 -150.91791441 198.67674483 -152.3245697 200.07232666 C-158.30698216 206.07578782 -163.72040681 212.37482349 -169 219 C-169.8751092 220.03927809 -170.75531875 221.07432534 -171.64453125 222.1015625 C-187.89818981 239.91979542 -187.89818981 239.91979542 -195 261.875 C-193.85818821 265.44316184 -193.04708949 266.83496273 -190 269 C-153.67576633 282.11446359 -98.31581853 261.75116976 -61.625 254.1875 C-60.91865921 254.04190895 -60.21231842 253.8963179 -59.48457336 253.746315 C-54.7310574 252.76591364 -49.97857059 251.78065322 -45.2265625 250.79296875 C-44.01036224 250.5411232 -42.79416199 250.28927765 -41.54110718 250.02980042 C-38.35790995 249.3655687 -35.17792368 248.68898056 -32 248 C-31.16776917 247.82132385 -30.33553833 247.64264771 -29.47808838 247.45855713 C-25.24215415 246.51512941 -25.24215415 246.51512941 -21.90625 243.8359375 C-21.4421875 243.02382813 -20.978125 242.21171875 -20.5 241.375 C-19.77296875 240.14910156 -19.77296875 240.14910156 -19.03125 238.8984375 C-18.6909375 238.27195312 -18.350625 237.64546875 -18 237 C-24.19474075 224.65127338 -31.45305873 212.99899469 -38.73532104 201.27159119 C-42.69440879 194.89137115 -46.60287816 188.48070849 -50.5 182.0625 C-50.84953735 181.48733643 -51.19907471 180.91217285 -51.5592041 180.31958008 C-55.54930233 173.75052154 -59.50780077 167.16385339 -63.41796875 160.546875 C-63.77863434 159.93666 -64.13929993 159.32644501 -64.51089478 158.69773865 C-66.22806902 155.79019912 -67.94086828 152.88024084 -69.6484375 149.96704102 C-74.99173111 140.76821904 -74.99173111 140.76821904 -81 132 C-82.18975254 131.88497893 -82.18975254 131.88497893 -83.34765625 133.28515625 Z M53 135 C31.23106671 167.21994908 31.23106671 167.21994908 9.62744141 199.55078125 C7.47248197 202.79388852 5.3127817 206.03381575 3.15112305 209.27246094 C2.15914005 210.76099085 1.16958148 212.2511403 0.18286133 213.74316406 C-2.16774369 217.29220505 -4.55657224 220.80171229 -7.03125 224.265625 C-7.74982178 225.28934204 -7.74982178 225.28934204 -8.48291016 226.33374023 C-9.3841747 227.61482566 -10.29973429 228.8860212 -11.23193359 230.14477539 C-12.60769385 232.03073127 -12.60769385 232.03073127 -14 235 C-13.19246117 238.88414804 -11.44193208 240.74409056 -9 244 C2.385 242.515 2.385 242.515 14 241 C14.79921875 238.60492188 15.5984375 236.20984375 16.421875 233.7421875 C24.15094704 210.70482619 32.61512225 188.13843944 42.05352783 165.74429321 C43.1135747 163.22878036 44.1713462 160.71231893 45.22900391 158.19580078 C46.59686019 154.94210002 47.97684013 151.69392337 49.36474609 148.44873047 C49.98953296 146.97114496 50.61405812 145.49344875 51.23828125 144.015625 C51.68100624 142.99292007 51.68100624 142.99292007 52.13267517 141.94955444 C52.81469781 140.32342758 53.41576781 138.66376567 54 137 C53.505 136.01 53.505 136.01 53 135 Z M-17 240 C-17.66 241.65 -18.32 243.3 -19 245 C-17.35 245 -15.7 245 -14 245 C-14.66 243.35 -15.32 241.7 -16 240 C-16.33 240 -16.66 240 -17 240 Z M25 243 C23.72132967 246.74737226 22.45356976 250.4983537 21.1875 254.25 C20.83107422 255.29414063 20.47464844 256.33828125 20.10742188 257.4140625 C19.39163745 259.54171528 18.70171235 261.67822568 18.03662109 263.82226562 C17 267 17 267 15.71728516 269.91210938 C13.81437844 274.88441051 13.420036 277.67544565 15.59545898 282.64379883 C17.66412953 286.1768954 20.01383979 289.49607221 22.42016602 292.80548096 C24.57809297 295.80301857 26.60800134 298.87965834 28.64953613 301.9571228 C31.31939163 305.97110855 34.03849929 309.95158591 36.75 313.9375 C38.40490566 316.37619343 40.05899547 318.81543856 41.71295166 321.254776 C42.72958111 322.75352192 43.74689611 324.25180319 44.76507568 325.74949646 C48.20606205 330.8135987 51.61098026 335.90098458 55 341 C60.11081835 339.47882729 64.62270408 337.2983209 69.3125 334.8125 C70.12283691 334.38324219 70.93317383 333.95398438 71.76806641 333.51171875 C87.83824664 324.87825483 104.08815865 315.89503595 118 304 C118.87140625 303.25492187 119.7428125 302.50984375 120.640625 301.7421875 C123.14115819 299.54079785 125.57493235 297.28402979 128 295 C128.89074219 294.19691406 129.78148437 293.39382813 130.69921875 292.56640625 C137.40087814 286.29521841 141.9474597 280.23216345 142.4375 270.8125 C141.88584991 266.00526347 141.20193727 262.07763436 137.546875 258.62890625 C119.70458758 246.17809264 92.84664433 245.28217169 72 244 C71.11199707 243.94215332 70.22399414 243.88430664 69.30908203 243.82470703 C54.54317443 242.88528644 39.79075132 242.88569744 25 243 Z M-0.375 245 C-2.24285156 245.2784375 -2.24285156 245.2784375 -4.1484375 245.5625 C-5.08945312 245.706875 -6.03046875 245.85125 -7 246 C-3.14900274 253.33170632 1.33718825 260.16198078 6 267 C8.34083615 264.65916385 8.55991361 263.39616688 9.2890625 260.2109375 C9.50820313 259.26992188 9.72734375 258.32890625 9.953125 257.359375 C10.28570312 255.88210938 10.28570312 255.88210938 10.625 254.375 C10.85445313 253.38242187 11.08390625 252.38984375 11.3203125 251.3671875 C11.88669348 248.91286994 12.44629109 246.45720193 13 244 C8.43310447 243.88758411 4.13944186 244.31857481 -0.375 245 Z M-22 249 C-24.27583082 251.54396019 -24.27583082 251.54396019 -25.9375 254.77734375 C-26.26758057 255.35516098 -26.59766113 255.93297821 -26.93774414 256.52830505 C-27.62978769 257.74131704 -28.3132174 258.95928083 -28.98828125 260.18182373 C-30.57563041 263.03447481 -32.2636917 265.82635669 -33.9375 268.62890625 C-35.29362918 270.93898615 -36.64801229 273.25000247 -38 275.5625 C-38.54308304 276.49000565 -38.54308304 276.49000565 -39.09713745 277.43624878 C-48.18644934 292.96356604 -57.10809105 308.58704562 -65.96969604 324.24526978 C-75.08391427 340.34366003 -84.50317868 356.22064866 -94.16308594 371.99707031 C-96.64359806 376.05213398 -99.10937126 380.11582253 -101.5625 384.1875 C-102.24441406 385.31542969 -102.92632812 386.44335938 -103.62890625 387.60546875 C-105.08281684 389.68475297 -105.08281684 389.68475297 -105 391 C-95.62293974 390.42753758 -86.50991058 388.75072365 -77.3125 386.9375 C-76.53021027 386.78416199 -75.74792053 386.63082397 -74.94192505 386.47283936 C-49.06048016 381.37375369 -23.87601601 374.82617813 1 366 C0.98428955 364.73857178 0.9685791 363.47714355 0.95239258 362.17749023 C0.69376049 339.39211193 0.57639564 316.85899882 3.24609375 294.203125 C3.3654126 293.14673828 3.48473145 292.09035156 3.60766602 291.00195312 C4 288 4 288 4.57788086 285.23242188 C6.1451962 276.40473691 2.10266362 270.29427389 -2.3125 263 C-3.02528136 261.77618928 -3.7355887 260.55093413 -4.44335938 259.32421875 C-6.86535687 255.15074661 -9.3227203 251.01591955 -12 247 C-15.76451289 247 -18.47552483 247.65196562 -22 249 Z M12 291 C4.86575653 314.15554023 4.57458245 339.98754255 5 364 C18.6647291 359.13337162 32.04696395 353.54568826 45 347 C43.74041013 343.67428877 42.31913121 340.65999043 40.48828125 337.61328125 C39.98474121 336.76934814 39.48120117 335.92541504 38.96240234 335.0559082 C38.41793457 334.1505835 37.8734668 333.24525879 37.3125 332.3125 C33.45936447 325.86259064 29.63651158 319.39892337 25.91015625 312.875 C25.57254776 312.28486618 25.23493927 311.69473236 24.88710022 311.0867157 C23.23191659 308.1922526 21.58194697 305.2950846 19.9387207 302.39379883 C19.33761475 301.34216553 18.73650879 300.29053223 18.1171875 299.20703125 C17.58722168 298.2735083 17.05725586 297.33998535 16.51123047 296.37817383 C15.16438205 294.25868264 13.85748331 292.671596 12 291 Z M48 352 C45.3728829 353.34597304 42.85375837 354.75499789 40.3125 356.25 C31.85447541 361.10580842 23.18384102 365.37022523 14.35473633 369.50683594 C13.41138428 369.94930664 12.46803223 370.39177734 11.49609375 370.84765625 C10.23043579 371.4355896 10.23043579 371.4355896 8.93920898 372.03540039 C7.04421406 372.84972332 7.04421406 372.84972332 6 374 C4.63397471 387.66025286 11.16302805 402.72387761 18.87890625 413.6640625 C26.52131419 422.89670887 37.18689022 428.37355735 49 430 C66.18378456 431.13935963 79.27935908 426.49426339 94 418 C89.3217966 410.52066129 84.44518581 403.21838954 79.375 396 C77.96557779 393.98346982 76.5567323 391.96653645 75.1484375 389.94921875 C74.45202148 388.95196777 73.75560547 387.9547168 73.03808594 386.92724609 C70.00437095 382.57000571 66.99755491 378.19467159 64 373.8125 C63.47092041 373.03986816 62.94184082 372.26723633 62.39672852 371.47119141 C58.68974088 366.04429774 55.05775894 360.57323759 51.48828125 355.0546875 C50.15958576 352.88728259 50.15958576 352.88728259 48 352 Z " fill="#5AD96C" transform="translate(410,79)"/>
</svg>
