<?xml version="1.0" encoding="UTF-8"?>
<svg version="1.1" xmlns="http://www.w3.org/2000/svg" width="750" height="714">
<path d="M0 0 C0.93263672 0.00060425 1.86527344 0.0012085 2.82617188 0.00183105 C16.48381428 0.02585144 29.95303626 0.3115705 43.5 2.1875 C44.48145996 2.31640625 45.46291992 2.4453125 46.47412109 2.578125 C83.18289683 7.47489545 117.64488267 17.27176342 151.5 32.1875 C153.0173877 32.85023926 153.0173877 32.85023926 154.56542969 33.52636719 C179.52831039 44.54707911 202.29719157 59.06849126 223.5 76.1875 C224.59233546 77.05873476 225.68476828 77.92984748 226.77734375 78.80078125 C229.37733986 80.90092158 231.942819 83.03553384 234.5 85.1875 C235.57519733 86.07721401 236.65073896 86.96651204 237.7265625 87.85546875 C246.34177532 95.01123324 254.32734064 102.51947349 261.62890625 111.03515625 C263.83079829 113.56802162 266.10195826 116.03082522 268.375 118.5 C289.77523624 142.00464676 305.8097382 168.62313251 319.5 197.1875 C319.85416992 197.91565918 320.20833984 198.64381836 320.57324219 199.39404297 C340.12530523 239.85283539 348.74716209 285.06041068 348.6875 329.8125 C348.68659363 331.07323334 348.68659363 331.07323334 348.68566895 332.35943604 C348.66151625 344.74652959 348.35430388 356.92037283 346.5 369.1875 C346.37109375 370.08936035 346.2421875 370.9912207 346.109375 371.92041016 C337.99583893 427.91695595 316.855383 483.28451599 280.5 527.1875 C279.98840332 527.80560547 279.47680664 528.42371094 278.94970703 529.06054688 C277.62084462 530.65201004 276.28192466 532.23417392 274.9375 533.8125 C274.50759766 534.32039062 274.07769531 534.82828125 273.63476562 535.3515625 C262.36787406 548.62625064 250.84501397 561.95193083 237.5 573.1875 C236.73558594 573.83976563 235.97117187 574.49203125 235.18359375 575.1640625 C221.35474048 586.72056899 206.99052235 597.94816838 191.5 607.1875 C190.79101562 607.6191748 190.08203125 608.05084961 189.3515625 608.49560547 C173.67087069 618.00235486 157.2295388 625.74550882 140.5 633.1875 C139.57864258 633.60016113 138.65728516 634.01282227 137.70800781 634.43798828 C95.59914856 653.0563682 47.72586017 660.42976394 2 660.375 C1.06736328 660.37439575 0.13472656 660.3737915 -0.82617188 660.37316895 C-14.48381428 660.34914856 -27.95303626 660.0634295 -41.5 658.1875 C-42.48145996 658.05859375 -43.46291992 657.9296875 -44.47412109 657.796875 C-81.18289683 652.90010455 -115.64488267 643.10323658 -149.5 628.1875 C-150.5115918 627.74567383 -151.52318359 627.30384766 -152.56542969 626.84863281 C-177.52831039 615.82792089 -200.29719157 601.30650874 -221.5 584.1875 C-222.59233546 583.31626524 -223.68476828 582.44515252 -224.77734375 581.57421875 C-227.37733986 579.47407842 -229.942819 577.33946616 -232.5 575.1875 C-233.57519733 574.29778599 -234.65073896 573.40848796 -235.7265625 572.51953125 C-244.34177532 565.36376676 -252.32734064 557.85552651 -259.62890625 549.33984375 C-261.83079829 546.80697838 -264.10195826 544.34417478 -266.375 541.875 C-287.77523624 518.37035324 -303.8097382 491.75186749 -317.5 463.1875 C-317.85416992 462.45934082 -318.20833984 461.73118164 -318.57324219 460.98095703 C-338.12530523 420.52216461 -346.74716209 375.31458932 -346.6875 330.5625 C-346.68689575 329.72201111 -346.6862915 328.88152222 -346.68566895 328.01556396 C-346.66151625 315.62847041 -346.35430388 303.45462717 -344.5 291.1875 C-344.37109375 290.28563965 -344.2421875 289.3837793 -344.109375 288.45458984 C-335.99583893 232.45804405 -314.855383 177.09048401 -278.5 133.1875 C-277.98840332 132.56939453 -277.47680664 131.95128906 -276.94970703 131.31445312 C-275.62084462 129.72298996 -274.28192466 128.14082608 -272.9375 126.5625 C-272.50759766 126.05460937 -272.07769531 125.54671875 -271.63476562 125.0234375 C-260.36787406 111.74874936 -248.84501397 98.42306917 -235.5 87.1875 C-234.73558594 86.53523438 -233.97117187 85.88296875 -233.18359375 85.2109375 C-219.35474048 73.65443101 -204.99052235 62.42683162 -189.5 53.1875 C-188.79101562 52.7558252 -188.08203125 52.32415039 -187.3515625 51.87939453 C-171.67087069 42.37264514 -155.2295388 34.62949118 -138.5 27.1875 C-137.57864258 26.77483887 -136.65728516 26.36217773 -135.70800781 25.93701172 C-93.59914856 7.3186318 -45.72586017 -0.05476394 0 0 Z M-110.5 628.1875 C-106.5 629.1875 -106.5 629.1875 -106.5 629.1875 Z M-93.5 633.1875 C-89.5 634.1875 -89.5 634.1875 -89.5 634.1875 Z M-86.5 635.1875 C-82.5 636.1875 -82.5 636.1875 -82.5 636.1875 Z M-82.5 636.1875 C-82.5 636.5175 -82.5 636.8475 -82.5 637.1875 C-80.85 637.1875 -79.2 637.1875 -77.5 637.1875 C-77.5 636.8575 -77.5 636.5275 -77.5 636.1875 C-79.15 636.1875 -80.8 636.1875 -82.5 636.1875 Z M-77.5 637.1875 C-73.5 638.1875 -73.5 638.1875 -73.5 638.1875 Z M-72.5 638.1875 C-68.5 639.1875 -68.5 639.1875 -68.5 639.1875 Z M-67.5 639.1875 C-63.5 640.1875 -63.5 640.1875 -63.5 640.1875 Z M-62.5 640.1875 C-62.5 640.5175 -62.5 640.8475 -62.5 641.1875 C-60.85 641.1875 -59.2 641.1875 -57.5 641.1875 C-57.5 640.8575 -57.5 640.5275 -57.5 640.1875 C-59.15 640.1875 -60.8 640.1875 -62.5 640.1875 Z M-57.5 641.1875 C-57.5 641.5175 -57.5 641.8475 -57.5 642.1875 C-55.52 642.1875 -53.54 642.1875 -51.5 642.1875 C-51.5 641.8575 -51.5 641.5275 -51.5 641.1875 C-53.48 641.1875 -55.46 641.1875 -57.5 641.1875 Z M55.5 641.1875 C59.5 642.1875 59.5 642.1875 59.5 642.1875 Z M-49.5 642.1875 C-49.5 642.5175 -49.5 642.8475 -49.5 643.1875 C-47.85 643.1875 -46.2 643.1875 -44.5 643.1875 C-44.5 642.8575 -44.5 642.5275 -44.5 642.1875 C-46.15 642.1875 -47.8 642.1875 -49.5 642.1875 Z M47.5 642.1875 C51.5 643.1875 51.5 643.1875 51.5 643.1875 Z M-42.5 643.1875 C-42.5 643.5175 -42.5 643.8475 -42.5 644.1875 C-40.19 644.1875 -37.88 644.1875 -35.5 644.1875 C-35.5 643.8575 -35.5 643.5275 -35.5 643.1875 C-37.81 643.1875 -40.12 643.1875 -42.5 643.1875 Z M39.5 643.1875 C43.5 644.1875 43.5 644.1875 43.5 644.1875 Z M-34.5 644.1875 C-34.5 644.5175 -34.5 644.8475 -34.5 645.1875 C-14.20428459 647.47794338 6.13810652 647.42282742 26.5 646.1875 C26.5 645.8575 26.5 645.5275 26.5 645.1875 C-3.695 644.6925 -3.695 644.6925 -34.5 644.1875 Z M27.5 644.1875 C27.5 644.5175 27.5 644.8475 27.5 645.1875 C30.47 645.1875 33.44 645.1875 36.5 645.1875 C36.5 644.8575 36.5 644.5275 36.5 644.1875 C33.53 644.1875 30.56 644.1875 27.5 644.1875 Z " fill="#F1DFCF" transform="translate(377.5,31.8125)"/>
<path d="M0 0 C-1.33938031 3.11622789 -2.61274676 4.74803091 -5.39453125 6.671875 C-6.09199463 7.16308838 -6.78945801 7.65430176 -7.50805664 8.16040039 C-8.26852295 8.68496826 -9.02898926 9.20953613 -9.8125 9.75 C-16.84835087 14.70855211 -23.74317628 19.8102526 -30.5625 25.0625 C-38.85771883 31.42861574 -47.30135335 37.52471849 -55.87451172 43.50830078 C-65.97770548 50.59887209 -75.93399543 57.87355768 -85.6875 65.4375 C-89.64597854 68.50654262 -93.63035508 71.5407256 -97.625 74.5625 C-98.31287598 75.08787354 -99.00075195 75.61324707 -99.70947266 76.15454102 C-100.3544873 76.64108154 -100.99950195 77.12762207 -101.6640625 77.62890625 C-102.23592285 78.06275635 -102.8077832 78.49660645 -103.39697266 78.94360352 C-105 80 -105 80 -108 81 C-100.75532435 96.68025689 -91.48406492 111.58422133 -82 126 C-81.18917969 125.23816406 -80.37835938 124.47632813 -79.54296875 123.69140625 C-73.41518097 117.96605148 -67.21271298 112.4540309 -60.66796875 107.203125 C-57.91610462 104.93072182 -55.30261857 102.55305169 -52.6875 100.125 C-47.02355463 94.92505016 -41.06085481 90.21647898 -34.97460938 85.52880859 C-32.87420644 83.90260642 -30.78782328 82.2595606 -28.703125 80.61328125 C-19.33239867 73.23115181 -9.81711899 66.12935595 0.01220703 59.36865234 C1.28720595 58.4907791 2.55929599 57.60865717 3.82763672 56.72119141 C47.63931721 26.06879649 47.63931721 26.06879649 62.8125 27.3125 C66 28 66 28 67 29 C67.07179964 30.51928038 67.08392007 32.04167482 67.0625 33.5625 C67.05347656 34.38878906 67.04445313 35.21507812 67.03515625 36.06640625 C67.01775391 37.02353516 67.01775391 37.02353516 67 38 C65.68 38.33 64.36 38.66 63 39 C63 36.69 63 34.38 63 32 C55.17769771 33.10493558 48.33624614 35.10869041 41.125 38.3125 C40.13540283 38.74908936 39.14580566 39.18567871 38.1262207 39.63549805 C20.73779862 47.5471263 5.25374689 58.61453866 -10 70 C-11.09729866 70.81038025 -12.19492506 71.62031702 -13.29296875 72.4296875 C-32.49728013 86.68704945 -51.05420594 101.85918177 -68.73828125 117.96484375 C-71.60282643 120.54243967 -74.54319663 123.02592234 -77.50390625 125.4921875 C-79.25927146 127.03827955 -79.25927146 127.03827955 -80 130 C-79.29935787 131.91476606 -79.29935787 131.91476606 -78.0703125 133.90234375 C-77.61374268 134.69519775 -77.15717285 135.48805176 -76.68676758 136.30493164 C-76.17138428 137.1736792 -75.65600098 138.04242676 -75.125 138.9375 C-74.58834717 139.85845459 -74.05169434 140.77940918 -73.4987793 141.72827148 C-67.24238376 152.40645384 -60.79263487 162.97067654 -54.33821106 173.52993774 C-51.73247919 177.79446143 -49.13999671 182.06681827 -46.5546875 186.34375 C-32.64244324 209.40225278 -32.64244324 209.40225278 -18 232 C-10.06562254 221.5343626 -3.0007462 210.48242605 4.1875 199.5 C12.80827214 186.33779838 21.51409042 173.2488311 30.43099976 160.28533936 C34.58545776 154.23413165 38.70093884 148.15678565 42.79516602 142.06469727 C43.81200857 140.55538551 44.83256025 139.04856644 45.85668945 137.54418945 C54.28975472 125.14999752 61.97078492 112.73615426 66.5625 98.375 C68.25082275 93.4507253 69.77432254 89.84862488 74.10546875 86.80078125 C76.95818376 85.59499449 79.12233252 85.52956921 82.1328125 86.19140625 C85.6867672 87.73046195 86.99363956 89.67696552 89 93 C89.64742945 98.29298626 87.90082904 102.28103801 85.69921875 106.9765625 C85.34373459 107.75440094 84.98825043 108.53223938 84.62199402 109.33364868 C80.40167814 118.46780581 75.85445461 127.44386303 71.30865479 136.41903687 C62.63906003 153.54761389 54.22513843 170.74506368 46.27880859 188.22070312 C44.73867981 191.56793987 43.13491254 194.88142522 41.5246582 198.1953125 C35.06150573 211.52511091 29.57210502 225.28044731 24 239 C24.91484665 238.99000725 24.91484665 238.99000725 25.84817505 238.97981262 C83.93179343 238.37488013 83.93179343 238.37488013 108 242 C108.80195801 242.11214844 109.60391602 242.22429687 110.43017578 242.33984375 C120.70117065 243.81788165 133.56423007 246.51708526 140.75 254.625 C141.984375 256.2890625 141.984375 256.2890625 143 258 C143.36738281 258.60328125 143.73476563 259.2065625 144.11328125 259.828125 C146.36069488 265.33280331 145.88295946 272.25638349 144.08984375 277.828125 C139.58425462 287.27392601 132.75508856 293.40825357 124.59570312 299.7578125 C123.01951882 300.98480542 121.45497452 302.22670364 119.890625 303.46875 C110.41225209 310.86065434 100.42709719 317.51526981 90.4375 324.1875 C89.73961365 324.65481537 89.04172729 325.12213074 88.32269287 325.60360718 C80.83710423 330.60816064 73.29974338 335.50970309 65.59765625 340.17578125 C64.96242538 340.56340134 64.32719452 340.95102142 63.67271423 341.35038757 C59.24241654 344 59.24241654 344 57 344 C63.50873644 353.34550874 70.3565467 362.32130066 77.52392578 371.16943359 C81.21595863 375.74814055 84.82891319 380.38961742 88.45068359 385.02392578 C90.22775322 387.29048764 92.01446594 389.54931239 93.80078125 391.80859375 C95.09654277 393.4555808 96.39211765 395.10271471 97.6875 396.75 C98.31253418 397.53737549 98.93756836 398.32475098 99.58154297 399.13598633 C100.44416748 400.23656372 100.44416748 400.23656372 101.32421875 401.359375 C101.84072998 402.01389648 102.35724121 402.66841797 102.8894043 403.34277344 C104 405 104 405 104 407 C112.69729259 399.62981473 120.61513414 391.67834541 128 383 C128.78761719 382.10152344 129.57523438 381.20304687 130.38671875 380.27734375 C136.81073245 372.88912985 142.65824514 365.17574948 148.31665039 357.18432617 C148.88246826 356.39646729 149.44828613 355.6086084 150.03125 354.796875 C150.78245117 353.73484863 150.78245117 353.73484863 151.54882812 352.65136719 C153 351 153 351 156 350 C155.46726553 354.28276727 152.81089113 357.13714517 150.1875 360.375 C149.69830078 360.98714355 149.20910156 361.59928711 148.70507812 362.22998047 C140.69076591 372.19186221 132.28699287 381.79271982 123.60546875 391.17578125 C120.38731193 394.66412814 117.22559438 398.20090061 114.0703125 401.74609375 C111.78220313 404.23711093 109.40610213 406.62324058 107 409 C115.92184559 420.71574296 125.06567742 432.11708759 135 443 C136.50129555 444.66549976 138.00129422 446.33216944 139.5 448 C141.7717129 450.52500493 144.04435414 453.04913304 146.3203125 455.5703125 C151.86351693 461.71481368 157.37927919 467.87460373 162.703125 474.2109375 C163.42556396 475.06981567 163.42556396 475.06981567 164.16259766 475.94604492 C165.11243962 477.07713385 166.06015696 478.2100116 167.00537109 479.3449707 C170.61721158 483.64917887 174.33906539 487.67880202 178.75 491.1875 C181 493 181 493 182 495 C182.57884232 502.06187625 182.57884232 502.06187625 180.1875 505.9375 C176.68560751 509.23928434 173.02390515 509.54621908 168.3828125 509.44921875 C163.72783337 508.57164072 161.13989987 505.34959441 158 502 C157.0614116 501.03234477 156.12259428 500.06491156 155.18359375 499.09765625 C149.21725068 492.86125562 143.81259913 486.34778662 138.62890625 479.44921875 C135.68713131 475.5498672 132.59499427 471.77807707 129.5 468 C121.44632899 458.13352299 113.72196771 448.06428725 106.25 437.75 C105.71890625 437.0173291 105.1878125 436.2846582 104.640625 435.52978516 C100.97098556 430.43242662 97.45179153 425.24709329 94 420 C90.56092525 420.78654133 87.91562923 422.05181362 84.8125 423.75 C69.61893923 431.35596633 51.50052886 435.90655642 34.8125 430.375 C32.3125 429.25 32.3125 429.25 30 428 C29.21625 427.5875 28.4325 427.175 27.625 426.75 C14.87908174 419.1713459 8.58394473 405.47685202 4.1875 391.875 C3.98036377 391.24255371 3.77322754 390.61010742 3.55981445 389.95849609 C1.95964542 384.70012351 1.40605785 379.46955029 1 374 C-0.1152002 374.44484741 -0.1152002 374.44484741 -1.25292969 374.89868164 C-22.02430614 383.16722572 -42.57175167 391.13287589 -64.3046875 396.54296875 C-68.48956466 397.58743248 -72.62358441 398.75646371 -76.76171875 399.97265625 C-84.0879807 402.08438472 -91.47044416 403.72149562 -98.9375 405.25 C-100.82952148 405.6521875 -100.82952148 405.6521875 -102.75976562 406.0625 C-103.98244141 406.31515625 -105.20511719 406.5678125 -106.46484375 406.828125 C-107.554021 407.0540332 -108.64319824 407.27994141 -109.76538086 407.51269531 C-113.22140379 408.03335512 -116.51016521 408.08267792 -120 408 C-120.23976563 408.68835938 -120.47953125 409.37671875 -120.7265625 410.0859375 C-122.23925336 413.54749388 -124.24092142 416.5290715 -126.375 419.625 C-132.46152281 428.62000883 -138.27266875 437.7727217 -144 447 C-144.63856934 448.02786621 -145.27713867 449.05573242 -145.93505859 450.11474609 C-154.94380966 464.66337369 -163.57828688 479.36319723 -171.73535156 494.40771484 C-180.88220914 511.25480609 -180.88220914 511.25480609 -185 514 C-188.0169088 514.34061873 -190.09407815 514.57212107 -193 514 C-195.69105198 511.82425584 -197.45532928 510.08934144 -199 507 C-198.93400535 479.55664651 -161.55865649 440.89852918 -145.99633789 419.55566406 C-145.48578857 418.8540918 -144.97523926 418.15251953 -144.44921875 417.4296875 C-143.99893311 416.81335449 -143.54864746 416.19702148 -143.0847168 415.56201172 C-141.92917273 413.97738205 -141.92917273 413.97738205 -141 412 C-141.56661346 412.00222061 -142.13322693 412.00444122 -142.7170105 412.00672913 C-148.65508387 412.02898399 -154.59314524 412.04399026 -160.53125 412.05493164 C-162.74251792 412.0599367 -164.95378258 412.06674276 -167.16503906 412.07543945 C-170.35743012 412.08767359 -173.54977714 412.09326674 -176.7421875 412.09765625 C-177.71864227 412.10281754 -178.69509705 412.10797882 -179.70114136 412.11329651 C-198.3365673 412.11479355 -198.3365673 412.11479355 -203 408 C-205.48372262 404.76214378 -206.85315436 401.91778526 -207.5 397.875 C-206.87308918 394.27026278 -205.52609037 392.60038715 -203 390 C-200.70117347 388.85058674 -199.30610671 388.8342356 -196.75 388.8125 C-196.00234375 388.79832031 -195.2546875 388.78414063 -194.484375 388.76953125 C-192 389 -192 389 -189.21875 389.94140625 C-176.4051408 394.15559083 -161.54986685 393.20699648 -148.1875 393.25 C-147.43907837 393.25517639 -146.69065674 393.26035278 -145.91955566 393.26568604 C-143.75217096 393.27750597 -141.5853594 393.27418109 -139.41796875 393.265625 C-138.15750732 393.26336914 -136.8970459 393.26111328 -135.59838867 393.25878906 C-131.06532643 392.93278011 -126.74020002 392.53930592 -123.23413086 389.43798828 C-122.81526611 388.82165527 -122.39640137 388.20532227 -121.96484375 387.5703125 C-121.46404297 386.85488281 -120.96324219 386.13945312 -120.44726562 385.40234375 C-119.94904297 384.65082031 -119.45082031 383.89929688 -118.9375 383.125 C-118.46634766 382.44308594 -117.99519531 381.76117188 -117.50976562 381.05859375 C-116.40282434 379.45485833 -115.30460778 377.84508723 -114.2121582 376.23144531 C-111.88958196 372.8387051 -109.52514715 369.47786262 -107.15625 366.11740112 C-100.27930608 356.35192214 -93.59956467 346.4764867 -87.06109619 336.48175049 C-85.37155266 333.89919609 -83.67815043 331.31920604 -81.98388672 328.73974609 C-79.56821483 325.0613874 -77.15389747 321.38214579 -74.74072266 317.70214844 C-68.99926837 308.94821784 -63.246702 300.20160933 -57.48953247 291.45800781 C-55.68607435 288.71779759 -53.8848206 285.97614842 -52.08374023 283.234375 C-44.51839374 271.73289011 -36.81579567 260.33276947 -29 249 C-36.1751695 249.74404671 -43.13568538 251.21525716 -50.18359375 252.73046875 C-52.13727405 253.1455465 -54.09095627 253.56061542 -56.04472637 253.97527027 C-58.10194255 254.41224251 -60.15887105 254.85054933 -62.21575928 255.2890625 C-91.19029324 261.46104313 -120.16898588 267.19137726 -149.4375 271.8125 C-150.10730896 271.91836426 -150.77711792 272.02422852 -151.46722412 272.13330078 C-186.02140393 277.55963457 -186.02140393 277.55963457 -197.046875 271.484375 C-200.78356786 268.64448842 -202.56845011 265.58439536 -203.34375 260.94140625 C-204.10545076 249.34451214 -196.23473843 240.86678245 -189.05395508 232.58154297 C-187.70763083 231.04995748 -186.35402347 229.52478311 -185 228 C-183.79133539 226.60445351 -182.58294981 225.20866525 -181.375 223.8125 C-180.85736084 223.22799072 -180.33972168 222.64348145 -179.80639648 222.04125977 C-178.64305313 220.72666134 -177.48595041 219.40650021 -176.33666992 218.07958984 C-169.04292399 209.78816267 -161.19521066 202.04436552 -153.37963867 194.24926758 C-150.93618078 191.81118368 -148.49813193 189.36778211 -146.06054688 186.92382812 C-144.48729979 185.35124167 -142.91374263 183.77896536 -141.33984375 182.20703125 C-140.62191147 181.48707474 -139.90397919 180.76711823 -139.16429138 180.02534485 C-135.16114672 176.04045901 -131.0546838 172.24559081 -126.77833557 168.55595398 C-124.53774174 166.59554733 -122.43126344 164.52820455 -120.34375 162.40625 C-119.54839844 161.60316406 -118.75304687 160.80007812 -117.93359375 159.97265625 C-117.13050781 159.15667969 -116.32742188 158.34070313 -115.5 157.5 C-110.38425468 152.30213999 -105.24600123 147.23906123 -99.71044922 142.48779297 C-97.64270522 140.68921576 -95.71711043 138.78208648 -93.8125 136.8125 C-91.02256469 133.97854204 -88.18852939 131.39139704 -85 129 C-86.41838762 125.20263278 -88.16673673 121.78845517 -90.1953125 118.28125 C-90.8255835 117.18925293 -91.45585449 116.09725586 -92.10522461 114.97216797 C-92.77828527 113.81466361 -93.45154693 112.6572761 -94.125 111.5 C-94.80680323 110.32312648 -95.48852512 109.14620584 -96.17016602 107.96923828 C-100.65772603 100.23576595 -105.21429386 92.55315921 -110 85 C-112.86679674 86.35086333 -115.36480222 87.88617524 -117.9140625 89.765625 C-118.66582764 90.31871338 -119.41759277 90.87180176 -120.19213867 91.44165039 C-120.99498291 92.03840576 -121.79782715 92.63516113 -122.625 93.25 C-123.46458252 93.87189209 -124.30416504 94.49378418 -125.16918945 95.13452148 C-138.81894691 105.28591369 -152.12707602 115.84371094 -165.29443359 126.61035156 C-167.62118176 128.50612176 -169.96530307 130.37963521 -172.3125 132.25 C-176.6449403 135.7058094 -180.93830928 139.20744871 -185.22265625 142.72265625 C-187.04021344 144.21300202 -188.86042748 145.70011494 -190.68359375 147.18359375 C-196.23090592 151.70034575 -201.71527752 156.28329098 -207.16577148 160.91577148 C-210.5591538 163.79520268 -213.98249917 166.63189727 -217.4375 169.4375 C-223.45133177 174.33572239 -229.32633404 179.38913246 -235.20166016 184.45166016 C-237.55027848 186.47378036 -239.90339651 188.49061574 -242.25708008 190.50683594 C-243.42004557 191.50315152 -244.58264274 192.4998972 -245.74487305 193.49707031 C-248.6812662 196.01620598 -251.62176188 198.53025702 -254.5703125 201.03515625 C-261.28515677 206.7485673 -267.86799333 212.57188749 -274.34375 218.5546875 C-278.86298847 222.71504527 -283.50178609 226.72685535 -288.1796875 230.70703125 C-293.99228003 235.6580799 -299.76195471 240.63524456 -305.375 245.8125 C-305.87080566 246.26802246 -306.36661133 246.72354492 -306.87744141 247.19287109 C-308.98994143 249.13614359 -311.09233632 251.08785236 -313.171875 253.06640625 C-318.70932122 258.19408145 -324.74335417 262.18141426 -332.25 263.625 C-336.08248692 262.75398025 -338.67253449 261.11580061 -341 258 C-342.12384768 255.2357888 -342.44123755 252.95513044 -342 250 C-339.66970849 246.32802549 -337.9060788 244.59751517 -334.29296875 242.21484375 C-330.45038718 239.63033159 -326.93895142 236.7627795 -323.375 233.8125 C-317.67101161 229.13253884 -311.89817498 224.61393739 -305.96875 220.22265625 C-302.73212635 217.79944723 -299.54876212 215.31706018 -296.375 212.8125 C-283.65851883 202.77880571 -270.86223076 192.84614525 -258 183 C-257.24380371 182.42024414 -256.48760742 181.84048828 -255.70849609 181.24316406 C-239.5715749 168.87749065 -223.26706004 156.76443066 -206.7644043 144.89160156 C-202.15020615 141.5678105 -197.56520667 138.2075879 -192.99707031 134.82080078 C-183.32812564 127.65368062 -173.52836329 120.69742862 -163.640625 113.8359375 C-160.91203374 111.93884003 -158.18985668 110.03281502 -155.46875 108.125 C-141.77979415 98.54190903 -127.93999749 89.21309968 -114 80 C-115.46990143 76.02364578 -117.35114611 72.49187187 -119.4921875 68.8359375 C-119.83433289 68.25041611 -120.17647827 67.66489471 -120.5289917 67.06163025 C-121.64022165 65.16364184 -122.75712272 63.26907987 -123.875 61.375 C-124.255495 60.72816254 -124.63598999 60.08132507 -125.02801514 59.41488647 C-137.1910698 38.57758452 -137.1910698 38.57758452 -150.98828125 18.8125 C-151.32214844 18.214375 -151.65601563 17.61625 -152 17 C-151.67 16.01 -151.34 15.02 -151 14 C-150.34 14 -149.68 14 -149 14 C-147.72632518 15.83904669 -146.5637194 17.75463422 -145.4375 19.6875 C-145.05964355 20.33033936 -144.68178711 20.97317871 -144.29248047 21.63549805 C-142.85437101 24.08613144 -141.42777995 26.54333398 -140 29 C-137.58221409 33.13788379 -135.16097237 37.2737373 -132.73901367 41.40917969 C-131.62500553 43.31249054 -130.51263999 45.2167547 -129.40039062 47.12109375 C-124.72568563 55.1153596 -119.97835906 63.05782014 -115.04736328 70.89770508 C-112 75.79066303 -112 75.79066303 -112 78 C-104.13577603 73.91455554 -96.86429025 68.99651548 -89.5625 64 C-88.94472687 63.57892975 -88.32695374 63.1578595 -87.69046021 62.72402954 C-77.32825543 55.66090385 -67.09513538 48.44071132 -57 41 C-55.45057598 39.86190408 -53.90109513 38.72388554 -52.3515625 37.5859375 C-49.16448467 35.24296761 -45.98136649 32.89474336 -42.80078125 30.54296875 C-39.57667304 28.15993225 -36.34453321 25.78844612 -33.10546875 23.42578125 C-24.77120457 17.33644794 -16.54324307 11.16552082 -8.54199219 4.64208984 C-2.8417435 0 -2.8417435 0 0 0 Z " fill="#59C05B" transform="translate(412,80)"/>
<path d="M0 0 C0.93263672 0.00060425 1.86527344 0.0012085 2.82617188 0.00183105 C16.48381428 0.02585144 29.95303626 0.3115705 43.5 2.1875 C44.48145996 2.31640625 45.46291992 2.4453125 46.47412109 2.578125 C83.18289683 7.47489545 117.64488267 17.27176342 151.5 32.1875 C153.0173877 32.85023926 153.0173877 32.85023926 154.56542969 33.52636719 C179.52831039 44.54707911 202.29719157 59.06849126 223.5 76.1875 C224.59233546 77.05873476 225.68476828 77.92984748 226.77734375 78.80078125 C229.37733986 80.90092158 231.942819 83.03553384 234.5 85.1875 C235.57519733 86.07721401 236.65073896 86.96651204 237.7265625 87.85546875 C246.34177532 95.01123324 254.32734064 102.51947349 261.62890625 111.03515625 C263.83079829 113.56802162 266.10195826 116.03082522 268.375 118.5 C289.77523624 142.00464676 305.8097382 168.62313251 319.5 197.1875 C319.85416992 197.91565918 320.20833984 198.64381836 320.57324219 199.39404297 C340.12530523 239.85283539 348.74716209 285.06041068 348.6875 329.8125 C348.68659363 331.07323334 348.68659363 331.07323334 348.68566895 332.35943604 C348.66151625 344.74652959 348.35430388 356.92037283 346.5 369.1875 C346.37109375 370.08936035 346.2421875 370.9912207 346.109375 371.92041016 C337.99583893 427.91695595 316.855383 483.28451599 280.5 527.1875 C279.98840332 527.80560547 279.47680664 528.42371094 278.94970703 529.06054688 C277.62084462 530.65201004 276.28192466 532.23417392 274.9375 533.8125 C274.50759766 534.32039062 274.07769531 534.82828125 273.63476562 535.3515625 C262.36787406 548.62625064 250.84501397 561.95193083 237.5 573.1875 C236.73558594 573.83976563 235.97117187 574.49203125 235.18359375 575.1640625 C221.35474048 586.72056899 206.99052235 597.94816838 191.5 607.1875 C190.79101562 607.6191748 190.08203125 608.05084961 189.3515625 608.49560547 C173.67087069 618.00235486 157.2295388 625.74550882 140.5 633.1875 C139.57864258 633.60016113 138.65728516 634.01282227 137.70800781 634.43798828 C95.59914856 653.0563682 47.72586017 660.42976394 2 660.375 C1.06736328 660.37439575 0.13472656 660.3737915 -0.82617188 660.37316895 C-14.48381428 660.34914856 -27.95303626 660.0634295 -41.5 658.1875 C-42.48145996 658.05859375 -43.46291992 657.9296875 -44.47412109 657.796875 C-81.18289683 652.90010455 -115.64488267 643.10323658 -149.5 628.1875 C-150.5115918 627.74567383 -151.52318359 627.30384766 -152.56542969 626.84863281 C-177.52831039 615.82792089 -200.29719157 601.30650874 -221.5 584.1875 C-222.59233546 583.31626524 -223.68476828 582.44515252 -224.77734375 581.57421875 C-227.37733986 579.47407842 -229.942819 577.33946616 -232.5 575.1875 C-233.57519733 574.29778599 -234.65073896 573.40848796 -235.7265625 572.51953125 C-244.34177532 565.36376676 -252.32734064 557.85552651 -259.62890625 549.33984375 C-261.83079829 546.80697838 -264.10195826 544.34417478 -266.375 541.875 C-287.77523624 518.37035324 -303.8097382 491.75186749 -317.5 463.1875 C-317.85416992 462.45934082 -318.20833984 461.73118164 -318.57324219 460.98095703 C-338.12530523 420.52216461 -346.74716209 375.31458932 -346.6875 330.5625 C-346.68689575 329.72201111 -346.6862915 328.88152222 -346.68566895 328.01556396 C-346.66151625 315.62847041 -346.35430388 303.45462717 -344.5 291.1875 C-344.37109375 290.28563965 -344.2421875 289.3837793 -344.109375 288.45458984 C-335.99583893 232.45804405 -314.855383 177.09048401 -278.5 133.1875 C-277.98840332 132.56939453 -277.47680664 131.95128906 -276.94970703 131.31445312 C-275.62084462 129.72298996 -274.28192466 128.14082608 -272.9375 126.5625 C-272.50759766 126.05460937 -272.07769531 125.54671875 -271.63476562 125.0234375 C-260.36787406 111.74874936 -248.84501397 98.42306917 -235.5 87.1875 C-234.73558594 86.53523438 -233.97117187 85.88296875 -233.18359375 85.2109375 C-219.35474048 73.65443101 -204.99052235 62.42683162 -189.5 53.1875 C-188.79101562 52.7558252 -188.08203125 52.32415039 -187.3515625 51.87939453 C-171.67087069 42.37264514 -155.2295388 34.62949118 -138.5 27.1875 C-137.57864258 26.77483887 -136.65728516 26.36217773 -135.70800781 25.93701172 C-93.59914856 7.3186318 -45.72586017 -0.05476394 0 0 Z M-9.54833984 13.22558594 C-26.16375215 13.4779198 -42.15945393 15.21585896 -58.5 18.1875 C-59.70205078 18.40035645 -60.90410156 18.61321289 -62.14257812 18.83251953 C-114.62777207 28.23417947 -165.26948838 49.41765038 -207.5 82.1875 C-208.47195312 82.93773438 -209.44390625 83.68796875 -210.4453125 84.4609375 C-217.28262082 89.84724148 -223.88671106 95.53000348 -230.5 101.1875 C-231.27859375 101.85136719 -232.0571875 102.51523438 -232.859375 103.19921875 C-239.2683078 108.72630227 -245.10221054 114.62086938 -250.625 121.03125 C-252.67359094 123.38712958 -254.77203002 125.6925746 -256.875 128 C-277.96540675 151.4456806 -294.81136366 178.34013064 -307.5 207.1875 C-308.11428241 208.47925009 -308.73167789 209.76952267 -309.3515625 211.05859375 C-316.73373032 226.66058387 -321.99236483 243.2918698 -325.5 260.1875 C-325.82033568 261.63179466 -326.1419662 263.07580271 -326.46484375 264.51953125 C-332.20484569 290.71793688 -333.97138399 316.39070677 -333.5 343.1875 C-333.49274902 343.868125 -333.48549805 344.54875 -333.47802734 345.25 C-332.53087728 408.94985497 -304.85924966 474.65819608 -264.5 523.1875 C-263.99355957 523.7969043 -263.48711914 524.40630859 -262.96533203 525.03417969 C-255.69047114 533.72639575 -248.02586434 541.90973152 -239.90454102 549.81396484 C-238.55891615 551.12988445 -237.23020033 552.46302809 -235.90234375 553.796875 C-228.29805182 561.36407282 -220.05045295 568.09236495 -211.54589844 574.60839844 C-209.3725855 576.28584331 -207.22211 577.99037687 -205.0703125 579.6953125 C-135.66685852 633.99267655 -41.94079033 654.74656589 44.60702515 644.30838013 C114.93321933 635.48880444 179.50658695 606.00552888 232.5 559.1875 C233.28632812 558.51203125 234.07265625 557.8365625 234.8828125 557.140625 C241.2915865 551.63346559 247.11094592 545.74399135 252.625 539.34375 C254.67359094 536.98787042 256.77203002 534.6824254 258.875 532.375 C299.19124283 487.55643564 327.61931627 427.47491077 333.17578125 367.25 C333.5 364.1875 333.5 364.1875 334.5 361.1875 C334.73798363 358.36989138 334.92503886 355.57276169 335.0625 352.75 C335.1042334 351.90598633 335.1459668 351.06197266 335.18896484 350.19238281 C335.61199744 340.85113241 335.64840766 331.53543644 335.5 322.1875 C335.49274902 321.31706055 335.48549805 320.44662109 335.47802734 319.54980469 C334.79424459 255.87688213 309.49088285 185.8953404 267.02734375 138.046875 C264.51103919 135.19998947 262.12572734 132.27715132 259.75 129.3125 C256.73540552 125.60594344 253.6144398 122.17932091 250.1796875 118.86328125 C248.35622107 117.04405544 246.67981721 115.13982089 245 113.1875 C238.92376428 106.18369732 232.34524403 100.25535951 225.09814453 94.46923828 C223.42035305 93.12362183 221.75462665 91.7640136 220.08984375 90.40234375 C162.80196119 43.72794276 88.85485778 14.48671122 14.5 13.1875 C13.32824219 13.16478027 13.32824219 13.16478027 12.1328125 13.14160156 C4.9027265 13.02471137 -2.31872221 13.13525914 -9.54833984 13.22558594 Z " fill="#56BF59" transform="translate(377.5,31.8125)"/>
<path d="M0 0 C3.23816619 1.59194762 4.32431371 4.44233411 5.91015625 7.53125 C6.69939105 8.99810892 7.49264463 10.46280988 8.2890625 11.92578125 C8.73008301 12.73740723 9.17110352 13.5490332 9.62548828 14.38525391 C12.41509291 19.3991403 15.38742128 24.3043312 18.34765625 29.21875 C19.31916626 30.83366333 19.31916626 30.83366333 20.31030273 32.48120117 C24.8280523 39.9707855 29.40996393 47.41864861 34.02880859 54.84619141 C38.72224418 62.40123342 43.35450142 69.99255901 47.97265625 77.59375 C48.32769226 78.17726227 48.68272827 78.76077454 49.04852295 79.36196899 C50.75120614 82.16111369 52.44696748 84.96401073 54.13183594 87.77392578 C55.46520983 89.98329916 56.82087323 92.17934433 58.19628906 94.36279297 C58.84694336 95.41740723 59.49759766 96.47202148 60.16796875 97.55859375 C60.75594238 98.4930835 61.34391602 99.42757324 61.94970703 100.39038086 C63.31461921 103.53037554 63.16997242 104.82447029 62.09765625 108.03125 C60.92220799 110.92727664 59.4740694 112.98884734 57.09765625 115.03125 C53.33681389 116.46228437 49.509951 116.93374818 45.53515625 117.46875 C43.07443038 117.86039656 40.61483705 118.2592063 38.15625 118.6640625 C37.18200577 118.820812 37.18200577 118.820812 36.18807983 118.98072815 C29.1625045 120.1330149 22.25002931 121.72827494 15.31619263 123.33175659 C0.6412937 126.71842701 -14.09193598 129.67488222 -28.90234375 132.40625 C-29.81822266 132.57532867 -30.73410156 132.74440735 -31.67773438 132.91860962 C-36.71405698 133.84561569 -41.7526013 134.75908064 -46.79443359 135.65563965 C-48.66053777 135.98816238 -50.52565889 136.32619164 -52.390625 136.66503906 C-64.0765793 138.72258549 -75.73126061 139.26148889 -87.57714844 139.32641602 C-89.05478396 139.3380574 -90.53237365 139.35869536 -92.00976562 139.38793945 C-94.17996846 139.43064683 -96.34896055 139.44676973 -98.51953125 139.45703125 C-100.43161377 139.47890503 -100.43161377 139.47890503 -102.38232422 139.5012207 C-106.54919106 138.94488705 -108.66036571 137.66138269 -111.90234375 135.03125 C-114.45381052 131.20404985 -114.33746912 129.6000664 -113.90234375 125.03125 C-110.12178778 109.90902611 -96.67980578 96.69952202 -86.90234375 85.03125 C-86.11279297 84.06888428 -85.32324219 83.10651855 -84.50976562 82.11499023 C-76.17465657 72.07283015 -67.02986582 62.88606577 -57.77392578 53.69702148 C-55.13770111 51.07920964 -52.50972324 48.4533268 -49.8828125 45.82617188 C-48.18667101 44.13494207 -46.49007255 42.4441704 -44.79296875 40.75390625 C-43.63175507 39.5943618 -43.63175507 39.5943618 -42.44708252 38.41139221 C-38.30984072 34.30974847 -34.09539357 30.36195191 -29.6663208 26.57627869 C-26.76785944 24.03758015 -24.09363762 21.28575102 -21.40234375 18.53125 C-17.25407737 14.3302311 -13.06673901 10.27023761 -8.54296875 6.46875 C-6.95234597 5.07506147 -5.56747752 3.59983201 -4.15234375 2.03125 C-1.90234375 0.03125 -1.90234375 0.03125 0 0 Z " fill="#F1DFCF" transform="translate(328.90234375,210.96875)"/>
<path d="M0 0 C60.07446187 -0.87841332 60.07446187 -0.87841332 89 6 C89.97839844 6.22429687 90.95679688 6.44859375 91.96484375 6.6796875 C111.78530837 11.62785398 111.78530837 11.62785398 117.07421875 18.7109375 C119.52166643 24.7624326 119.159487 32.17506804 116.7109375 38.140625 C103.02756083 61.00873395 75.40929314 75.45891783 53 88 C52.05543945 88.53061035 51.11087891 89.0612207 50.13769531 89.60791016 C47.51787025 91.06919861 44.88764256 92.5086696 42.25 93.9375 C41.47027832 94.36885254 40.69055664 94.80020508 39.88720703 95.24462891 C38.80608643 95.81769775 38.80608643 95.81769775 37.703125 96.40234375 C37.08083008 96.73741943 36.45853516 97.07249512 35.81738281 97.41772461 C33.44084422 98.17914918 32.29277853 97.96269612 30 97 C28.56225586 95.51074219 28.56225586 95.51074219 27.21484375 93.546875 C26.69349854 92.79656006 26.17215332 92.04624512 25.63500977 91.27319336 C24.79474243 90.02421265 24.79474243 90.02421265 23.9375 88.75 C23.34187256 87.88189697 22.74624512 87.01379395 22.13256836 86.11938477 C15.85745493 76.91519412 9.75506272 67.59192458 3.66186523 58.26660156 C3.27601761 57.67616058 2.89016998 57.0857196 2.49263 56.47738647 C1.73470472 55.31065607 0.98159976 54.14077885 0.23356628 52.96768188 C-1.49075671 50.26806089 -3.25709752 47.66054422 -5.19189453 45.10595703 C-8.71900089 40.29548352 -10.57615295 37.18555987 -9.6953125 31.140625 C-9.18688795 29.07894014 -8.61879856 27.03128736 -8 25 C-7.53352051 23.37094727 -7.53352051 23.37094727 -7.05761719 21.70898438 C-6.05685212 18.36660444 -4.98062239 15.05905358 -3.875 11.75 C-3.50246094 10.61175781 -3.12992187 9.47351563 -2.74609375 8.30078125 C-1.83842091 5.53121541 -0.9229932 2.76448971 0 0 Z " fill="#F1DFCF" transform="translate(434,322)"/>
<path d="M0 0 C1.82104492 2.25317383 1.82104492 2.25317383 3.48046875 5.20703125 C4.39022461 6.7993457 4.39022461 6.7993457 5.31835938 8.42382812 C5.93517578 9.54208984 6.55199219 10.66035156 7.1875 11.8125 C7.81591797 12.91916016 8.44433594 14.02582031 9.09179688 15.16601562 C10.750822 18.09903009 12.39323103 21.0380587 14 24 C14.3926001 24.7017334 14.7852002 25.4034668 15.18969727 26.12646484 C16.54437338 29.25866867 16.00974119 32.4872087 15.75 35.8125 C15.71003906 36.47958984 15.67007813 37.14667969 15.62890625 37.83398438 C15.39910482 41.20958112 15.07795786 44.52664989 14.52783203 47.86694336 C12.39721109 61.13719639 12.55139261 74.50702333 12.39910889 87.91656494 C12.35855252 91.31621489 12.30770074 94.71571084 12.2578125 98.11523438 C12.16257366 104.74338914 12.07731329 111.37161317 12 118 C7.55800221 119.4974068 3.11458543 120.99050489 -1.33007812 122.47998047 C-2.83533793 122.98504317 -4.3402342 123.49119094 -5.84472656 123.99853516 C-19.78355836 128.69754054 -33.71397555 132.90900519 -48.125 135.9375 C-49.89907227 136.31382568 -49.89907227 136.31382568 -51.70898438 136.69775391 C-60.6157146 138.56056109 -69.54489771 140.26331525 -78.5 141.875 C-79.69254395 142.09019287 -80.88508789 142.30538574 -82.11376953 142.52709961 C-86.49704769 143.29804877 -90.53896482 144 -95 144 C-93.27066295 138.8637654 -90.31945678 134.54507252 -87.4375 130 C-72.57551769 106.26330913 -58.83786156 81.83315448 -45.00439453 57.48828125 C-37.51521853 44.31000639 -29.97171023 31.16855614 -22.25 18.125 C-21.58226562 16.99570068 -20.91453125 15.86640137 -20.2265625 14.70288086 C-18.49786318 11.79348168 -16.75592453 8.89303192 -15 6 C-14.59257568 5.32348389 -14.18515137 4.64696777 -13.76538086 3.94995117 C-11.35843372 0.11439374 -11.35843372 0.11439374 -8.0625 -0.9375 C-5.02292646 -0.99953211 -2.88473236 -0.94707991 0 0 Z " fill="#F0DFCF" transform="translate(399,327)"/>
<path d="M0 0 C1.26757812 1.3984375 1.26757812 1.3984375 2.53125 3.375 C3.0061084 4.10444824 3.4809668 4.83389648 3.97021484 5.58544922 C4.47504395 6.38225098 4.97987305 7.17905273 5.5 8 C6.58491558 9.66993519 7.67087283 11.33919405 8.7578125 13.0078125 C9.3034082 13.85118164 9.84900391 14.69455078 10.41113281 15.56347656 C12.67756003 19.03903643 15.01658677 22.46143795 17.375 25.875 C17.81360352 26.51203857 18.25220703 27.14907715 18.70410156 27.80541992 C21.30197832 31.56992718 23.92281263 35.31778284 26.5546875 39.05859375 C38.74832449 56.39199052 38.74832449 56.39199052 44 65 C40.94149278 68.42878654 37.99145273 70.19020935 33.8125 72.0625 C32.21341797 72.79146484 32.21341797 72.79146484 30.58203125 73.53515625 C28.80892578 74.26025391 28.80892578 74.26025391 27 75 C26.32936523 75.27577881 25.65873047 75.55155762 24.96777344 75.83569336 C18.82973926 78.14329212 13.14567286 78.50518865 6.625 78.4375 C5.60712402 78.42992676 4.58924805 78.42235352 3.54052734 78.41455078 C-9.09322295 78.1365961 -18.24866659 73.96629464 -27.6875 65.625 C-28.450625 64.75875 -29.21375 63.8925 -30 63 C-30.70382812 62.2265625 -30.70382812 62.2265625 -31.421875 61.4375 C-40.14326679 51.00779435 -45.35959339 34.4447974 -45 21 C-44.36723145 20.71914551 -43.73446289 20.43829102 -43.08251953 20.14892578 C-31.26875405 14.88198205 -19.61415683 9.54939416 -8.44775391 2.99853516 C-3.28802423 0 -3.28802423 0 0 0 Z " fill="#F0DFCF" transform="translate(460,431)"/>
<path d="M0 0 C-1.33938031 3.11622789 -2.61274676 4.74803091 -5.39453125 6.671875 C-6.09199463 7.16308838 -6.78945801 7.65430176 -7.50805664 8.16040039 C-8.26852295 8.68496826 -9.02898926 9.20953613 -9.8125 9.75 C-16.84835087 14.70855211 -23.74317628 19.8102526 -30.5625 25.0625 C-38.85771883 31.42861574 -47.30135335 37.52471849 -55.87451172 43.50830078 C-65.97770548 50.59887209 -75.93399543 57.87355768 -85.6875 65.4375 C-89.64597854 68.50654262 -93.63035508 71.5407256 -97.625 74.5625 C-98.31287598 75.08787354 -99.00075195 75.61324707 -99.70947266 76.15454102 C-100.3544873 76.64108154 -100.99950195 77.12762207 -101.6640625 77.62890625 C-102.23592285 78.06275635 -102.8077832 78.49660645 -103.39697266 78.94360352 C-105 80 -105 80 -108 81 C-107.566875 81.84304687 -107.13375 82.68609375 -106.6875 83.5546875 C-106.130625 84.65039062 -105.57375 85.74609375 -105 86.875 C-104.443125 87.96554688 -103.88625 89.05609375 -103.3125 90.1796875 C-102 93 -102 93 -102 95 C-102.66 95 -103.32 95 -104 95 C-105.5078125 92.8125 -105.5078125 92.8125 -107.125 90 C-107.66382813 89.071875 -108.20265625 88.14375 -108.7578125 87.1875 C-109.16773438 86.465625 -109.57765625 85.74375 -110 85 C-112.86679674 86.35086333 -115.36480222 87.88617524 -117.9140625 89.765625 C-118.66582764 90.31871338 -119.41759277 90.87180176 -120.19213867 91.44165039 C-120.99498291 92.03840576 -121.79782715 92.63516113 -122.625 93.25 C-123.46458252 93.87189209 -124.30416504 94.49378418 -125.16918945 95.13452148 C-138.81894691 105.28591369 -152.12707602 115.84371094 -165.29443359 126.61035156 C-167.62118176 128.50612176 -169.96530307 130.37963521 -172.3125 132.25 C-176.6449403 135.7058094 -180.93830928 139.20744871 -185.22265625 142.72265625 C-187.04021344 144.21300202 -188.86042748 145.70011494 -190.68359375 147.18359375 C-196.23090592 151.70034575 -201.71527752 156.28329098 -207.16577148 160.91577148 C-210.5591538 163.79520268 -213.98249917 166.63189727 -217.4375 169.4375 C-223.45133177 174.33572239 -229.32633404 179.38913246 -235.20166016 184.45166016 C-237.55027848 186.47378036 -239.90339651 188.49061574 -242.25708008 190.50683594 C-243.42004557 191.50315152 -244.58264274 192.4998972 -245.74487305 193.49707031 C-248.6812662 196.01620598 -251.62176188 198.53025702 -254.5703125 201.03515625 C-261.28515677 206.7485673 -267.86799333 212.57188749 -274.34375 218.5546875 C-278.86298847 222.71504527 -283.50178609 226.72685535 -288.1796875 230.70703125 C-293.99228003 235.6580799 -299.76195471 240.63524456 -305.375 245.8125 C-305.87080566 246.26802246 -306.36661133 246.72354492 -306.87744141 247.19287109 C-308.98994143 249.13614359 -311.09233632 251.08785236 -313.171875 253.06640625 C-318.70932122 258.19408145 -324.74335417 262.18141426 -332.25 263.625 C-336.08248692 262.75398025 -338.67253449 261.11580061 -341 258 C-342.12384768 255.2357888 -342.44123755 252.95513044 -342 250 C-339.66970849 246.32802549 -337.9060788 244.59751517 -334.29296875 242.21484375 C-330.45038718 239.63033159 -326.93895142 236.7627795 -323.375 233.8125 C-317.67101161 229.13253884 -311.89817498 224.61393739 -305.96875 220.22265625 C-302.73212635 217.79944723 -299.54876212 215.31706018 -296.375 212.8125 C-283.65851883 202.77880571 -270.86223076 192.84614525 -258 183 C-257.24380371 182.42024414 -256.48760742 181.84048828 -255.70849609 181.24316406 C-239.5715749 168.87749065 -223.26706004 156.76443066 -206.7644043 144.89160156 C-202.15020615 141.5678105 -197.56520667 138.2075879 -192.99707031 134.82080078 C-183.32812564 127.65368062 -173.52836329 120.69742862 -163.640625 113.8359375 C-160.91203374 111.93884003 -158.18985668 110.03281502 -155.46875 108.125 C-141.77979415 98.54190903 -127.93999749 89.21309968 -114 80 C-115.46990143 76.02364578 -117.35114611 72.49187187 -119.4921875 68.8359375 C-119.83433289 68.25041611 -120.17647827 67.66489471 -120.5289917 67.06163025 C-121.64022165 65.16364184 -122.75712272 63.26907987 -123.875 61.375 C-124.255495 60.72816254 -124.63598999 60.08132507 -125.02801514 59.41488647 C-137.1910698 38.57758452 -137.1910698 38.57758452 -150.98828125 18.8125 C-151.32214844 18.214375 -151.65601563 17.61625 -152 17 C-151.67 16.01 -151.34 15.02 -151 14 C-150.34 14 -149.68 14 -149 14 C-147.72632518 15.83904669 -146.5637194 17.75463422 -145.4375 19.6875 C-145.05964355 20.33033936 -144.68178711 20.97317871 -144.29248047 21.63549805 C-142.85437101 24.08613144 -141.42777995 26.54333398 -140 29 C-137.58221409 33.13788379 -135.16097237 37.2737373 -132.73901367 41.40917969 C-131.62500553 43.31249054 -130.51263999 45.2167547 -129.40039062 47.12109375 C-124.72568563 55.1153596 -119.97835906 63.05782014 -115.04736328 70.89770508 C-112 75.79066303 -112 75.79066303 -112 78 C-104.13577603 73.91455554 -96.86429025 68.99651548 -89.5625 64 C-88.94472687 63.57892975 -88.32695374 63.1578595 -87.69046021 62.72402954 C-77.32825543 55.66090385 -67.09513538 48.44071132 -57 41 C-55.45057598 39.86190408 -53.90109513 38.72388554 -52.3515625 37.5859375 C-49.16448467 35.24296761 -45.98136649 32.89474336 -42.80078125 30.54296875 C-39.57667304 28.15993225 -36.34453321 25.78844612 -33.10546875 23.42578125 C-24.77120457 17.33644794 -16.54324307 11.16552082 -8.54199219 4.64208984 C-2.8417435 0 -2.8417435 0 0 0 Z " fill="#59C05B" transform="translate(412,80)"/>
<path d="M0 0 C1 1 1 1 1.09765625 3.06640625 C1.08025391 4.30197266 1.08025391 4.30197266 1.0625 5.5625 C1.05347656 6.38878906 1.04445313 7.21507813 1.03515625 8.06640625 C1.01775391 9.02353516 1.01775391 9.02353516 1 10 C-0.32 10.33 -1.64 10.66 -3 11 C-3 8.69 -3 6.38 -3 4 C-10.82230229 5.10493558 -17.66375386 7.10869041 -24.875 10.3125 C-25.86459717 10.74908936 -26.85419434 11.18567871 -27.8737793 11.63549805 C-45.26220138 19.5471263 -60.74625311 30.61453866 -76 42 C-77.09729866 42.81038025 -78.19492506 43.62031702 -79.29296875 44.4296875 C-98.49728013 58.68704945 -117.05420594 73.85918177 -134.73828125 89.96484375 C-137.60282643 92.54243967 -140.54319663 95.02592234 -143.50390625 97.4921875 C-145.25927146 99.03827955 -145.25927146 99.03827955 -146 102 C-145.29935787 103.91476606 -145.29935787 103.91476606 -144.0703125 105.90234375 C-143.61374268 106.69519775 -143.15717285 107.48805176 -142.68676758 108.30493164 C-142.17138428 109.1736792 -141.65600098 110.04242676 -141.125 110.9375 C-140.58834717 111.85845459 -140.05169434 112.77940918 -139.4987793 113.72827148 C-133.24238376 124.40645384 -126.79263487 134.97067654 -120.33821106 145.52993774 C-117.73247916 149.79446148 -115.14000647 154.06682413 -112.5546875 158.34375 C-104.50741145 171.65099299 -96.37566185 184.89588166 -88 198 C-88.99 198.33 -89.98 198.66 -91 199 C-91.37060547 198.37883301 -91.74121094 197.75766602 -92.12304688 197.11767578 C-99.34022833 185.03088445 -106.60204126 172.97717043 -114 161 C-125.62291279 142.16921095 -136.99374553 123.19801976 -148 104 C-152.14995519 104.83282899 -153.82461266 106.54123182 -156.75 109.625 C-159.68381641 112.65276687 -162.58877488 115.59526248 -165.8125 118.3125 C-170.14172295 122.00946321 -174.10550476 126.04931158 -178.08129883 130.1184082 C-180.85967212 132.94157312 -183.6921116 135.63104198 -186.70141602 138.20800781 C-191.01017296 141.96087769 -195.07857584 145.91707006 -199.12109375 149.953125 C-199.86529068 150.69399353 -200.60948761 151.43486206 -201.37623596 152.19818115 C-202.93971072 153.75662609 -204.50186309 155.31639872 -206.06274414 156.87744141 C-208.42248384 159.23499773 -210.79010929 161.58443286 -213.15820312 163.93359375 C-220.90587811 171.6527255 -228.27539162 179.36404623 -235 188 C-235.94514873 189.11470472 -236.89833686 190.22269915 -237.86328125 191.3203125 C-254.12269763 209.51925814 -254.12269763 209.51925814 -262.5625 231.8125 C-261.8322611 235.95052044 -260.21772707 237.39517333 -257 240 C-252.57568165 242.21215917 -246.5484812 241.18583747 -241.62890625 241.18530273 C-239.43208073 241.18744435 -237.23579597 241.20546627 -235.0390625 241.22460938 C-225.2147106 241.26547999 -215.71395769 240.48211835 -206 239 C-205.33027161 238.89958405 -204.66054321 238.79916809 -203.97052002 238.69570923 C-199.01426337 237.94693658 -194.06854447 237.14068926 -189.125 236.3125 C-188.35675903 236.18438934 -187.58851807 236.05627869 -186.79699707 235.92428589 C-166.77439889 232.56914366 -146.92630887 228.43220315 -127.109375 224.03515625 C-126.01879791 223.79385735 -126.01879791 223.79385735 -124.90618896 223.54768372 C-121.4441248 222.7811296 -117.98374312 222.00838637 -114.52636719 221.22094727 C-107.68811264 219.69058691 -100.99846461 218.45420769 -94 218 C-93.67 218.66 -93.34 219.32 -93 220 C-104.44205809 222.40104515 -115.88508372 224.7974017 -127.32951355 227.18711853 C-132.57582214 228.28295483 -137.82123715 229.38283899 -143.06536865 230.48904419 C-168.09771104 235.76430356 -193.2196562 240.38394628 -218.5 244.3125 C-219.52544922 244.47194092 -220.55089844 244.63138184 -221.60742188 244.7956543 C-252.24880213 249.43433352 -252.24880213 249.43433352 -263.046875 243.484375 C-266.78356786 240.64448842 -268.56845011 237.58439536 -269.34375 232.94140625 C-270.10545076 221.34451214 -262.23473843 212.86678245 -255.05395508 204.58154297 C-253.70763083 203.04995748 -252.35402347 201.52478311 -251 200 C-249.79133539 198.60445351 -248.58294981 197.20866525 -247.375 195.8125 C-246.85736084 195.22799072 -246.33972168 194.64348145 -245.80639648 194.04125977 C-244.64305313 192.72666134 -243.48595041 191.40650021 -242.33666992 190.07958984 C-235.04292399 181.78816267 -227.19521066 174.04436552 -219.37963867 166.24926758 C-216.93618078 163.81118368 -214.49813193 161.36778211 -212.06054688 158.92382812 C-210.48729979 157.35124167 -208.91374263 155.77896536 -207.33984375 154.20703125 C-206.26294533 153.12709648 -206.26294533 153.12709648 -205.16429138 152.02534485 C-201.16114672 148.04045901 -197.0546838 144.24559081 -192.77833557 140.55595398 C-190.53774174 138.59554733 -188.43126344 136.52820455 -186.34375 134.40625 C-185.54839844 133.60316406 -184.75304687 132.80007812 -183.93359375 131.97265625 C-182.72896484 130.74869141 -182.72896484 130.74869141 -181.5 129.5 C-176.38425468 124.30213999 -171.24600123 119.23906123 -165.71044922 114.48779297 C-163.64270522 112.68921576 -161.71711043 110.78208648 -159.8125 108.8125 C-157.02256469 105.97854204 -154.18852939 103.39139704 -151 101 C-152.45548923 97.0525643 -154.32536739 93.57700045 -156.4765625 89.96484375 C-157.15394646 88.81463012 -157.83102067 87.66423402 -158.5078125 86.51367188 C-159.56865749 84.71875563 -160.63213679 82.92554976 -161.70117188 81.13549805 C-162.7381663 79.39567828 -163.76377723 77.64908941 -164.7890625 75.90234375 C-165.71259521 74.34761353 -165.71259521 74.34761353 -166.65478516 72.76147461 C-168 70 -168 70 -168 66 C-165.42631124 69.26235255 -163.35596987 72.70161105 -161.27734375 76.296875 C-160.56734889 77.514493 -159.85705373 78.73193593 -159.14648438 79.94921875 C-158.03505111 81.85897767 -156.92597252 83.76998702 -155.82202148 85.68408203 C-154.75119893 87.53809289 -153.67130413 89.38655481 -152.58984375 91.234375 C-151.94909912 92.34006836 -151.30835449 93.44576172 -150.64819336 94.58496094 C-150.10428955 95.38192383 -149.56038574 96.17888672 -149 97 C-145.69533293 97 -143.843569 94.24038888 -141.5625 92.0625 C-137.62600402 88.3729626 -133.64532536 84.8207371 -129.4375 81.4375 C-125.72600707 78.45239926 -122.17808064 75.36552442 -118.6875 72.125 C-113.02355463 66.92505016 -107.06085481 62.21647898 -100.97460938 57.52880859 C-98.87420644 55.90260642 -96.78782328 54.2595606 -94.703125 52.61328125 C-85.33239867 45.23115181 -75.81711899 38.12935595 -65.98779297 31.36865234 C-64.71279405 30.4907791 -63.44070401 29.60865717 -62.17236328 28.72119141 C-16.14404782 -3.48204953 -16.14404782 -3.48204953 0 0 Z " fill="#67C366" transform="translate(478,108)"/>
<path d="M0 0 C1.42957082 4.28871247 -0.56404579 6.82575919 -2.4375 10.6875 C-16.81684694 41.51046822 -30.28241241 74.38912333 -39.1953125 107.23828125 C-40 110 -40 110 -41 111 C-42.77690109 111.22789426 -44.56169968 111.39489788 -46.34765625 111.53515625 C-47.42724609 111.62216797 -48.50683594 111.70917969 -49.61914062 111.79882812 C-50.75544922 111.88583984 -51.89175781 111.97285156 -53.0625 112.0625 C-54.77276367 112.19881836 -54.77276367 112.19881836 -56.51757812 112.33789062 C-59.34475741 112.56264546 -62.17220464 112.78315711 -65 113 C-69.08895649 106.55679584 -69.08895649 106.55679584 -68.70123291 104.12995911 C-67.93036078 101.78847444 -66.91774796 100.05361379 -65.55761719 97.9987793 C-65.04409195 97.2170787 -64.53056671 96.43537811 -64.0014801 95.62998962 C-63.43896042 94.78658524 -62.87644073 93.94318085 -62.296875 93.07421875 C-61.71143417 92.18710709 -61.12599335 91.29999542 -60.52281189 90.38600159 C-58.60429986 87.48264318 -56.67738348 84.58497519 -54.75 81.6875 C-53.42132535 79.68151743 -52.09295812 77.6753312 -50.76489258 75.66894531 C-41.11515156 61.10806323 -31.3502112 46.62749515 -21.51997375 32.18812561 C-15.39973294 23.18820079 -9.38288904 14.11867963 -3.36254883 5.05175781 C-2.2434877 3.36664946 -1.12207061 1.68310591 0 0 Z " fill="#EFDFCE" transform="translate(465,210)"/>
<path d="M0 0 C0.66 0 1.32 0 2 0 C2.42744507 0.80328735 2.42744507 0.80328735 2.86352539 1.62280273 C10.58268211 16.07617927 18.78018246 30.18579687 27.29199219 44.18554688 C29.8781196 48.44696437 32.44004867 52.72282154 35 57 C31.36485739 59.82965634 27.53775001 61.81317481 23.375 63.75 C22.27176392 64.26626953 22.27176392 64.26626953 21.14624023 64.79296875 C15.52415392 67.38367167 9.82893854 69.75042321 4.0625 72 C3.2876123 72.30260742 2.51272461 72.60521484 1.71435547 72.91699219 C-3.73491995 75 -3.73491995 75 -6 75 C-6.50020797 49.60226072 -4.96810937 24.98148612 0 0 Z " fill="#EFDFCE" transform="translate(421,368)"/>
<path d="M0 0 C1.98708053 3.48823744 2.77774497 6.9807545 3.6875 10.875 C6.10322289 20.51530362 9.77485108 29.9808312 17 37 C17 37.66 17 38.32 17 39 C17.56332031 39.26941406 18.12664062 39.53882813 18.70703125 39.81640625 C21.95841328 41.49471759 24.99376093 43.49355241 28.07421875 45.46484375 C35.60819678 49.417919 42.59905084 50.58241902 51.0625 50.5625 C52.06676025 50.5615332 53.07102051 50.56056641 54.10571289 50.55957031 C65.30879293 50.29843042 73.92711573 46.68045616 83.75 41.5625 C87.19015409 39.90857976 87.62922446 39.87885074 91 41 C84.62481802 44.88294021 78.15165838 47.85139 71.125 50.3125 C70.39998291 50.56660645 69.67496582 50.82071289 68.92797852 51.08251953 C56.81554055 55.21026104 41.23558263 56.61538718 29.3125 51.25 C28.549375 50.8375 27.78625 50.425 27 50 C25.824375 49.38125 25.824375 49.38125 24.625 48.75 C11.78271937 41.11404935 5.54351159 27.29593609 1.0625 13.625 C0.83860596 12.95903809 0.61471191 12.29307617 0.3840332 11.60693359 C-0.91975382 7.37719976 -1.0693428 4.29065497 0 0 Z " fill="#65C264" transform="translate(415,458)"/>
<path d="M0 0 C0 0.33 0 0.66 0 1 C-11.44205809 3.40104515 -22.88508372 5.7974017 -34.32951355 8.18711853 C-39.57576163 9.28294219 -44.82111835 10.38280305 -50.06518555 11.48901367 C-65.0887683 14.65499362 -80.12947666 17.64348478 -95.25 20.3125 C-95.94707062 20.43587738 -96.64414124 20.55925476 -97.36233521 20.68637085 C-101.90360678 21.48659462 -106.45080463 22.24591503 -111 23 C-112.31714489 23.23828585 -113.63420232 23.4770556 -114.95117188 23.71630859 C-116.82385742 24.03269287 -116.82385742 24.03269287 -118.734375 24.35546875 C-119.84522461 24.55164795 -120.95607422 24.74782715 -122.10058594 24.94995117 C-125.49485729 25.00854208 -126.59036236 24.30759014 -129 22 C-128.04077637 21.8868042 -127.08155273 21.7736084 -126.09326172 21.65698242 C-116.05992122 20.45111867 -106.09108882 18.98211332 -96.125 17.3125 C-95.35675903 17.18438934 -94.58851807 17.05627869 -93.79699707 16.92428589 C-69.45363637 12.84512309 -45.34640842 7.60339836 -21.26269531 2.22094727 C-20.01713867 1.94436279 -18.77158203 1.66777832 -17.48828125 1.3828125 C-16.40071533 1.13934082 -15.31314941 0.89586914 -14.19262695 0.64501953 C-3.95416424 -1.42349913 -3.95416424 -1.42349913 0 0 Z " fill="#6FC56C" transform="translate(385,327)"/>
<path d="M0 0 C-0.79636524 5.18056545 -1.90935604 10.26530907 -3.0625 15.375 C-3.24876953 16.20644531 -3.43503906 17.03789062 -3.62695312 17.89453125 C-4.08318198 19.93001382 -4.54139025 21.96505255 -5 24 C-8.3599048 22.88003173 -8.62807241 22.45791755 -10.375 19.578125 C-10.80296875 18.88203125 -11.2309375 18.1859375 -11.671875 17.46875 C-12.11015625 16.7365625 -12.5484375 16.004375 -13 15.25 C-13.43828125 14.53328125 -13.8765625 13.8165625 -14.328125 13.078125 C-15.56131108 11.05748275 -16.78300112 9.03042253 -18 7 C-18.598125 6.00484375 -19.19625 5.0096875 -19.8125 3.984375 C-20.204375 3.32953125 -20.59625 2.6746875 -21 2 C-13.94546999 0.79556805 -7.16562789 -0.28100502 0 0 Z " fill="#EDDFCC" transform="translate(423,323)"/>
<path d="M0 0 C0.99 0.495 0.99 0.495 2 1 C1.41678771 4.38263126 0.3912731 5.63092799 -2 8 C-2.9572148 9.32063077 -3.87841709 10.66770159 -4.7734375 12.03125 C-5.33562988 12.88195068 -5.89782227 13.73265137 -6.47705078 14.60913086 C-7.10337402 15.56311768 -7.72969727 16.51710449 -8.375 17.5 C-9.81643102 19.67924536 -11.25892516 21.85774814 -12.703125 24.03515625 C-13.10439606 24.64057755 -13.50566711 25.24599884 -13.9190979 25.86976624 C-19.31351963 33.9967102 -24.78430554 42.07232248 -30.24502563 50.15478516 C-43.23816666 69.38707208 -56.15180456 88.67063887 -69 108 C-69.66 108.99 -70.32 109.98 -71 111 C-72 108 -72 108 -71.16061401 106.1774292 C-70.70655182 105.49593811 -70.25248962 104.81444702 -69.78466797 104.11230469 C-69.27096146 103.33048325 -68.75725494 102.5486618 -68.22798157 101.7431488 C-67.3687635 100.47036827 -67.3687635 100.47036827 -66.4921875 99.171875 C-65.90418869 98.28375626 -65.31618988 97.39563751 -64.71037292 96.48060608 C-62.77525043 93.56361241 -60.8253741 90.65681354 -58.875 87.75 C-57.53235063 85.73317915 -56.19047687 83.71584176 -54.84936523 81.69799805 C-46.49610032 69.14778494 -38.07534046 56.6421225 -29.59057617 44.18041992 C-22.89624341 34.34753764 -16.27989268 24.46398803 -9.6875 14.5625 C-9.19589386 13.82415924 -8.70428772 13.08581848 -8.19778442 12.32510376 C-5.46357167 8.21781044 -2.73103678 4.10940571 0 0 Z " fill="#6DC46A" transform="translate(466,205)"/>
<path d="M0 0 C-1.33938031 3.11622789 -2.61274676 4.74803091 -5.39453125 6.671875 C-6.09199463 7.16308838 -6.78945801 7.65430176 -7.50805664 8.16040039 C-8.26852295 8.68496826 -9.02898926 9.20953613 -9.8125 9.75 C-16.84835087 14.70855211 -23.74317628 19.8102526 -30.5625 25.0625 C-38.85771883 31.42861574 -47.30135335 37.52471849 -55.87451172 43.50830078 C-66.23834917 50.78179571 -76.45996657 58.2287333 -86.3984375 66.07421875 C-88.56383992 67.67713676 -90.54766804 68.91330314 -93 70 C-91.65445047 64.76730738 -88.32096148 62.76185697 -84 60 C-82.53638892 59.02940875 -81.07420084 58.05666899 -79.61328125 57.08203125 C-78.85225098 56.57752441 -78.0912207 56.07301758 -77.30712891 55.55322266 C-73.53897798 53.01639978 -69.86262289 50.35660399 -66.1875 47.6875 C-65.06686157 46.87526978 -65.06686157 46.87526978 -63.92358398 46.04663086 C-56.85679354 40.91392523 -49.82383483 35.73529699 -42.80078125 30.54296875 C-39.57667304 28.15993225 -36.34453321 25.78844612 -33.10546875 23.42578125 C-24.77120457 17.33644794 -16.54324307 11.16552082 -8.54199219 4.64208984 C-2.8417435 0 -2.8417435 0 0 0 Z " fill="#69C367" transform="translate(412,80)"/>
<path d="M0 0 C0.66 0 1.32 0 2 0 C3.27367482 1.83904669 4.4362806 3.75463422 5.5625 5.6875 C5.94035645 6.33033936 6.31821289 6.97317871 6.70751953 7.63549805 C8.14562899 10.08613144 9.57222005 12.54333398 11 15 C13.41786535 19.13801974 15.83900625 23.27411654 18.26098633 27.409729 C19.00383348 28.67853572 19.7463464 29.94753817 20.48852539 31.21673584 C26.53452857 41.55545442 32.69009745 51.81966047 39 62 C38.34 62.66 37.68 63.32 37 64 C36.48727539 63.13012451 35.97455078 62.26024902 35.44628906 61.36401367 C18.84912983 32.35498039 18.84912983 32.35498039 0.01171875 4.8125 C-0.32214844 4.214375 -0.65601563 3.61625 -1 3 C-0.67 2.01 -0.34 1.02 0 0 Z " fill="#6AC468" transform="translate(261,94)"/>
<path d="M0 0 C0.66 0 1.32 0 2 0 C1.46726553 4.28276727 -1.18910887 7.13714517 -3.8125 10.375 C-4.30169922 10.98714355 -4.79089844 11.59928711 -5.29492188 12.22998047 C-13.30354039 22.18478487 -21.70222154 31.77754771 -30.375 41.15625 C-34.2921029 45.39977814 -38.14618536 49.69895255 -42 54 C-42.66 53.34 -43.32 52.68 -44 52 C-43.28714844 51.29875 -42.57429687 50.5975 -41.83984375 49.875 C-36.32831657 44.42715643 -31.00850252 38.91913934 -26 33 C-25.21496094 32.10410156 -24.42992187 31.20820313 -23.62109375 30.28515625 C-15.94931661 21.46816767 -9.06352868 12.12264261 -2.22412109 2.65136719 C-1 1 -1 1 0 0 Z " fill="#68C267" transform="translate(566,430)"/>
<path d="M0 0 C1 1 1 1 1.09765625 3.06640625 C1.08605469 3.89011719 1.07445312 4.71382813 1.0625 5.5625 C1.05347656 6.38878906 1.04445313 7.21507813 1.03515625 8.06640625 C1.02355469 8.70449219 1.01195312 9.34257813 1 10 C-0.32 10.33 -1.64 10.66 -3 11 C-3 8.69 -3 6.38 -3 4 C-9.75456094 4.97594417 -15.69095846 6.43756696 -21.90625 9.29296875 C-24 10 -24 10 -27 9 C-23.30224057 4.75808868 -18.07544301 3.13971914 -13 1 C-11.9275 0.54625 -10.855 0.0925 -9.75 -0.375 C-6.24082469 -1.17253984 -3.49491891 -0.75380604 0 0 Z " fill="#63C262" transform="translate(478,108)"/>
<path d="M0 0 C0.66 0.66 1.32 1.32 2 2 C-9.69237377 11.14729881 -21.6642286 19.74142677 -34 28 C-34 25 -34 25 -32.47265625 23.10546875 C-29.33532958 20.43403261 -25.97176492 18.4143811 -22.4375 16.3125 C-16.24151523 12.54649308 -10.6473647 8.53832195 -5.13671875 3.8125 C-3 2 -3 2 0 0 Z " fill="#6AC368" transform="translate(534,378)"/>
<path d="M0 0 C-15.26121562 9.29516804 -28.23881736 13.28506443 -46 11 C-46 10.67 -46 10.34 -46 10 C-44.88625 9.99742187 -43.7725 9.99484375 -42.625 9.9921875 C-29.41030575 9.74002093 -18.94934914 6.73595729 -7.25 0.5625 C-3.80984591 -1.09142024 -3.37077554 -1.12114926 0 0 Z " fill="#7DC776" transform="translate(506,499)"/>
<path d="M0 0 C2.01700801 3.55207604 2.89360532 7.17508919 3.875 11.125 C5.45126024 17.30421138 7.41550667 23.15739539 10 29 C9.01 29 8.02 29 7 29 C5.83952677 26.00546371 4.69940166 23.00355624 3.5625 20 C3.23701172 19.16082031 2.91152344 18.32164062 2.57617188 17.45703125 C0.62002071 12.25407249 -0.65859662 7.56177141 -1 2 C-0.67 1.34 -0.34 0.68 0 0 Z " fill="#70C46C" transform="translate(415,458)"/>
<path d="M0 0 C-11.52164009 6.51936219 -11.52164009 6.51936219 -17 8 C-17.66 7.34 -18.32 6.68 -19 6 C-16.58967749 4.79783666 -14.17316521 3.61325022 -11.75 2.4375 C-11.06808594 2.09525391 -10.38617188 1.75300781 -9.68359375 1.40039062 C-5.97831091 -0.38030356 -3.92128522 -1.3058334 0 0 Z " fill="#70C46C" transform="translate(506,499)"/>
<path d="M0 0 C1 3 1 3 0.22265625 5.04296875 C-0.16019531 5.75066406 -0.54304688 6.45835937 -0.9375 7.1875 C-1.31777344 7.90292969 -1.69804687 8.61835938 -2.08984375 9.35546875 C-2.54037109 10.16951172 -2.54037109 10.16951172 -3 11 C-3.99 11 -4.98 11 -6 11 C-4.54955729 6.89041233 -2.48889248 3.56741255 0 0 Z " fill="#DADBBE" transform="translate(465,210)"/>
<path d="M0 0 C1.32 1.32 2.64 2.64 4 4 C1 6 1 6 -3 6 C-1.125 1.125 -1.125 1.125 0 0 Z " fill="#DFDCC1" transform="translate(393,319)"/>
<path d="M0 0 C0.99 0.33 1.98 0.66 3 1 C0.69 3.31 -1.62 5.62 -4 8 C-4.66 7.34 -5.32 6.68 -6 6 C-4.02 4.02 -2.04 2.04 0 0 Z " fill="#74C570" transform="translate(528,476)"/>
<path d="M0 0 C-2.91708924 1.98362069 -4.12380904 1.9876191 -7.75 1.625 C-8.8225 1.41875 -9.895 1.2125 -11 1 C-11 0.67 -11 0.34 -11 0 C-7.01803543 -1.05404945 -4.01804691 -0.84098656 0 0 Z " fill="#80C878" transform="translate(342,336)"/>
<path d="M0 0 C0.66 1.32 1.32 2.64 2 4 C0.68 5.32 -0.64 6.64 -2 8 C-2 4.23312136 -1.76462683 3.08809695 0 0 Z " fill="#6AC368" transform="translate(392,315)"/>
<path d="M0 0 C0 0.33 0 0.66 0 1 C-6.4 2.23076923 -6.4 2.23076923 -9.4375 1.0625 C-9.953125 0.711875 -10.46875 0.36125 -11 0 C-7.01803543 -1.05404945 -4.01804691 -0.84098656 0 0 Z " fill="#7DC776" transform="translate(375,329)"/>
<path d="M0 0 C0.66 0 1.32 0 2 0 C2 0.66 2 1.32 2 2 C1.34 2 0.68 2 0 2 C0 1.34 0 0.68 0 0 Z " fill="#000000" transform="translate(724,112)"/>
</svg>
